%FSLAX23Y23*%
%MOIN*%
G04 EasyPC Gerber Version 17.0 Build 3379 *
%ADD144R,0.06000X0.06000*%
%ADD118C,0.00300*%
%ADD70C,0.00500*%
%ADD117C,0.00600*%
%ADD137C,0.01000*%
%ADD147C,0.02000*%
%ADD145C,0.06000*%
%AMT146*0 Rectangle Pad at angle 45*21,1,0.06000,0.06000,0,0,45*%
%ADD146T146*%
X0Y0D02*
D02*
D70*
X3Y3D02*
X3183D01*
Y4503*
X3*
Y3*
X473Y3403D02*
X436D01*
X454D02*
Y3434D01*
X473D02*
X436D01*
X473Y3453D02*
X436D01*
Y3471*
X439Y3478*
X442Y3481*
X448Y3484*
X461*
X467Y3481*
X470Y3478*
X473Y3471*
Y3453*
Y3503D02*
X436D01*
Y3524*
X439Y3531*
X445Y3534*
X451Y3531*
X454Y3524*
Y3503*
Y3524D02*
X473Y3534D01*
Y3559D02*
Y3571D01*
Y3565D02*
X436D01*
X442Y3559*
X1648Y4278D02*
X1611D01*
Y4299*
X1614Y4306*
X1620Y4309*
X1626Y4306*
X1629Y4299*
Y4278*
X1611Y4328D02*
X1648D01*
Y4359*
Y4384D02*
Y4396D01*
Y4390D02*
X1611D01*
X1617Y4384*
D02*
D117*
X89Y4402D02*
G75*
G03X89Y4303I43J-50D01*
G01*
X114Y4446D02*
X133Y4474D01*
X119Y4446*
X123D02*
X133Y4474D01*
X128Y4446*
X133D02*
Y4484D01*
X137Y4446D02*
X133Y4474D01*
X109Y4446*
X146D02*
X133Y4474D01*
X142Y4446*
X156D02*
X133Y4474D01*
X151Y4446*
X158Y4474D02*
X108D01*
X176Y4303D02*
G75*
G03X176Y4402I-43J50D01*
G01*
X199Y4025D02*
Y3671D01*
X317*
Y4025*
X199*
X430Y3027D02*
X698D01*
Y3128*
X430*
Y3027*
Y3127D02*
X698D01*
Y3228*
X430*
Y3127*
X485Y2818D02*
X839D01*
Y2937*
X485*
Y2818*
X862Y312D02*
Y219D01*
X882Y148D02*
X1077D01*
X1076Y2972D02*
Y2789D01*
X1077Y384D02*
X894D01*
X1098Y219D02*
Y313D01*
X1130Y3251D02*
Y3055D01*
X934*
Y3251*
X1130*
X1148Y2757D02*
X1241D01*
X1165Y3128D02*
Y3178D01*
X1190Y3153D02*
X1140D01*
X1241Y2993D02*
X1147D01*
X1263Y522D02*
G75*
G03X1334Y593I5J66D01*
G01*
X1263Y822D02*
G75*
G03X1334Y893I5J66D01*
G01*
X1263Y1122D02*
G75*
G03X1334Y1193I5J66D01*
G01*
X1263Y1422D02*
G75*
G03X1334Y1493I5J66D01*
G01*
X1263Y1722D02*
G75*
G03X1334Y1793I5J66D01*
G01*
X1273Y654D02*
G75*
G03X1202Y583I-5J-66D01*
G01*
X1273Y954D02*
G75*
G03X1202Y883I-5J-66D01*
G01*
X1273Y1254D02*
G75*
G03X1202Y1183I-5J-66D01*
G01*
X1273Y1554D02*
G75*
G03X1202Y1483I-5J-66D01*
G01*
X1273Y1854D02*
G75*
G03X1202Y1783I-5J-66D01*
G01*
X1312Y2777D02*
Y2972D01*
X1321Y667D02*
X1353Y673D01*
X1324Y664*
X1321Y967D02*
X1353Y973D01*
X1324Y964*
X1321Y1267D02*
X1353Y1273D01*
X1324Y1264*
X1321Y1567D02*
X1353Y1573D01*
X1324Y1564*
X1321Y1867D02*
X1353Y1873D01*
X1324Y1864*
X1327Y660D02*
X1353Y673D01*
X1330Y657*
X1327Y960D02*
X1353Y973D01*
X1330Y957*
X1327Y1260D02*
X1353Y1273D01*
X1330Y1257*
X1327Y1560D02*
X1353Y1573D01*
X1330Y1557*
X1327Y1860D02*
X1353Y1873D01*
X1330Y1857*
X1334Y654D02*
X1360Y680D01*
X1334Y954D02*
X1360Y980D01*
X1334Y1254D02*
X1360Y1280D01*
X1334Y1554D02*
X1360Y1580D01*
X1334Y1854D02*
X1360Y1880D01*
X1337Y650D02*
X1353Y673D01*
X1317Y670*
X1337Y950D02*
X1353Y973D01*
X1317Y970*
X1337Y1250D02*
X1353Y1273D01*
X1317Y1270*
X1337Y1550D02*
X1353Y1573D01*
X1317Y1570*
X1337Y1850D02*
X1353Y1873D01*
X1317Y1870*
X1344Y644D02*
X1353Y673D01*
X1340Y647*
X1344Y944D02*
X1353Y973D01*
X1340Y947*
X1344Y1244D02*
X1353Y1273D01*
X1340Y1247*
X1344Y1544D02*
X1353Y1573D01*
X1340Y1547*
X1344Y1844D02*
X1353Y1873D01*
X1340Y1847*
X1350Y637D02*
X1353Y673D01*
X1347Y641*
X1350Y937D02*
X1353Y973D01*
X1347Y941*
X1350Y1237D02*
X1353Y1273D01*
X1347Y1241*
X1350Y1537D02*
X1353Y1573D01*
X1347Y1541*
X1350Y1837D02*
X1353Y1873D01*
X1347Y1841*
X1371Y656D02*
X1336Y691D01*
X1371Y956D02*
X1336Y991D01*
X1371Y1256D02*
X1336Y1291D01*
X1371Y1556D02*
X1336Y1591D01*
X1371Y1856D02*
X1336Y1891D01*
X1385Y293D02*
X1739D01*
Y412*
X1385*
Y293*
X1563Y522D02*
G75*
G03X1634Y593I5J66D01*
G01*
X1563Y822D02*
G75*
G03X1634Y893I5J66D01*
G01*
X1563Y1122D02*
G75*
G03X1634Y1193I5J66D01*
G01*
X1563Y1422D02*
G75*
G03X1634Y1493I5J66D01*
G01*
X1563Y1722D02*
G75*
G03X1634Y1793I5J66D01*
G01*
X1573Y654D02*
G75*
G03X1502Y583I-5J-66D01*
G01*
X1573Y954D02*
G75*
G03X1502Y883I-5J-66D01*
G01*
X1573Y1254D02*
G75*
G03X1502Y1183I-5J-66D01*
G01*
X1573Y1554D02*
G75*
G03X1502Y1483I-5J-66D01*
G01*
X1573Y1854D02*
G75*
G03X1502Y1783I-5J-66D01*
G01*
X1621Y667D02*
X1653Y673D01*
X1624Y664*
X1621Y967D02*
X1653Y973D01*
X1624Y964*
X1621Y1267D02*
X1653Y1273D01*
X1624Y1264*
X1621Y1567D02*
X1653Y1573D01*
X1624Y1564*
X1621Y1867D02*
X1653Y1873D01*
X1624Y1864*
X1627Y660D02*
X1653Y673D01*
X1630Y657*
X1627Y960D02*
X1653Y973D01*
X1630Y957*
X1627Y1260D02*
X1653Y1273D01*
X1630Y1257*
X1627Y1560D02*
X1653Y1573D01*
X1630Y1557*
X1627Y1860D02*
X1653Y1873D01*
X1630Y1857*
X1634Y654D02*
X1660Y680D01*
X1634Y954D02*
X1660Y980D01*
X1634Y1254D02*
X1660Y1280D01*
X1634Y1554D02*
X1660Y1580D01*
X1634Y1854D02*
X1660Y1880D01*
X1637Y650D02*
X1653Y673D01*
X1617Y670*
X1637Y950D02*
X1653Y973D01*
X1617Y970*
X1637Y1250D02*
X1653Y1273D01*
X1617Y1270*
X1637Y1550D02*
X1653Y1573D01*
X1617Y1570*
X1637Y1850D02*
X1653Y1873D01*
X1617Y1870*
X1644Y644D02*
X1653Y673D01*
X1640Y647*
X1644Y944D02*
X1653Y973D01*
X1640Y947*
X1644Y1244D02*
X1653Y1273D01*
X1640Y1247*
X1644Y1544D02*
X1653Y1573D01*
X1640Y1547*
X1644Y1844D02*
X1653Y1873D01*
X1640Y1847*
X1650Y637D02*
X1653Y673D01*
X1647Y641*
X1650Y937D02*
X1653Y973D01*
X1647Y941*
X1650Y1237D02*
X1653Y1273D01*
X1647Y1241*
X1650Y1537D02*
X1653Y1573D01*
X1647Y1541*
X1650Y1837D02*
X1653Y1873D01*
X1647Y1841*
X1671Y656D02*
X1636Y691D01*
X1671Y956D02*
X1636Y991D01*
X1671Y1256D02*
X1636Y1291D01*
X1671Y1556D02*
X1636Y1591D01*
X1671Y1856D02*
X1636Y1891D01*
X1685Y2044D02*
X2039D01*
Y2162*
X1685*
Y2044*
Y2144D02*
X2039D01*
Y2262*
X1685*
Y2144*
Y2244D02*
X2039D01*
Y2362*
X1685*
Y2244*
Y2344D02*
X2039D01*
Y2462*
X1685*
Y2344*
Y2444D02*
X2039D01*
Y2562*
X1685*
Y2444*
X1855Y3058D02*
X1905D01*
X1863Y522D02*
G75*
G03X1934Y593I5J66D01*
G01*
X1863Y822D02*
G75*
G03X1934Y893I5J66D01*
G01*
X1863Y1122D02*
G75*
G03X1934Y1193I5J66D01*
G01*
X1863Y1422D02*
G75*
G03X1934Y1493I5J66D01*
G01*
X1863Y1722D02*
G75*
G03X1934Y1793I5J66D01*
G01*
X1873Y654D02*
G75*
G03X1802Y583I-5J-66D01*
G01*
X1873Y954D02*
G75*
G03X1802Y883I-5J-66D01*
G01*
X1873Y1254D02*
G75*
G03X1802Y1183I-5J-66D01*
G01*
X1873Y1554D02*
G75*
G03X1802Y1483I-5J-66D01*
G01*
X1873Y1854D02*
G75*
G03X1802Y1783I-5J-66D01*
G01*
X1880Y3083D02*
Y3033D01*
X1921Y667D02*
X1953Y673D01*
X1924Y664*
X1921Y967D02*
X1953Y973D01*
X1924Y964*
X1921Y1267D02*
X1953Y1273D01*
X1924Y1264*
X1921Y1567D02*
X1953Y1573D01*
X1924Y1564*
X1921Y1867D02*
X1953Y1873D01*
X1924Y1864*
X1927Y660D02*
X1953Y673D01*
X1930Y657*
X1927Y960D02*
X1953Y973D01*
X1930Y957*
X1927Y1260D02*
X1953Y1273D01*
X1930Y1257*
X1927Y1560D02*
X1953Y1573D01*
X1930Y1557*
X1927Y1860D02*
X1953Y1873D01*
X1930Y1857*
X1934Y654D02*
X1960Y680D01*
X1934Y954D02*
X1960Y980D01*
X1934Y1254D02*
X1960Y1280D01*
X1934Y1554D02*
X1960Y1580D01*
X1934Y1854D02*
X1960Y1880D01*
X1937Y650D02*
X1953Y673D01*
X1917Y670*
X1937Y950D02*
X1953Y973D01*
X1917Y970*
X1937Y1250D02*
X1953Y1273D01*
X1917Y1270*
X1937Y1550D02*
X1953Y1573D01*
X1917Y1570*
X1937Y1850D02*
X1953Y1873D01*
X1917Y1870*
X1944Y644D02*
X1953Y673D01*
X1940Y647*
X1944Y944D02*
X1953Y973D01*
X1940Y947*
X1944Y1244D02*
X1953Y1273D01*
X1940Y1247*
X1944Y1544D02*
X1953Y1573D01*
X1940Y1547*
X1944Y1844D02*
X1953Y1873D01*
X1940Y1847*
X1950Y637D02*
X1953Y673D01*
X1947Y641*
X1950Y937D02*
X1953Y973D01*
X1947Y941*
X1950Y1237D02*
X1953Y1273D01*
X1947Y1241*
X1950Y1537D02*
X1953Y1573D01*
X1947Y1541*
X1950Y1837D02*
X1953Y1873D01*
X1947Y1841*
X1971Y656D02*
X1936Y691D01*
X1971Y956D02*
X1936Y991D01*
X1971Y1256D02*
X1936Y1291D01*
X1971Y1556D02*
X1936Y1591D01*
X1971Y1856D02*
X1936Y1891D01*
X1996Y2893D02*
G75*
G03X1958Y2828I37J-65D01*
G01*
Y2778*
G75*
G03X1994Y2713I75*
G01*
X2000Y2972D02*
X2253D01*
G75*
G03X2338Y3058J86*
G01*
G75*
G03X2253Y3143I-86*
G01*
X2000*
G75*
G03Y2972J-86*
G01*
X2033Y2646D02*
G75*
G03Y2640J-3D01*
G01*
G75*
G03Y2646J3*
G01*
X2071Y2713D02*
G75*
G03X2108Y2777I-38J65D01*
G01*
Y2828*
G75*
G03X2069Y2893I-75*
G01*
X2163Y522D02*
G75*
G03X2234Y593I5J66D01*
G01*
X2163Y822D02*
G75*
G03X2234Y893I5J66D01*
G01*
X2163Y1122D02*
G75*
G03X2234Y1193I5J66D01*
G01*
X2163Y1422D02*
G75*
G03X2234Y1493I5J66D01*
G01*
X2163Y1722D02*
G75*
G03X2234Y1793I5J66D01*
G01*
X2173Y654D02*
G75*
G03X2102Y583I-5J-66D01*
G01*
X2173Y954D02*
G75*
G03X2102Y883I-5J-66D01*
G01*
X2173Y1254D02*
G75*
G03X2102Y1183I-5J-66D01*
G01*
X2173Y1554D02*
G75*
G03X2102Y1483I-5J-66D01*
G01*
X2173Y1854D02*
G75*
G03X2102Y1783I-5J-66D01*
G01*
X2186Y2893D02*
G75*
G03X2148Y2828I37J-65D01*
G01*
Y2778*
G75*
G03X2184Y2713I75*
G01*
X2221Y667D02*
X2253Y673D01*
X2224Y664*
X2221Y967D02*
X2253Y973D01*
X2224Y964*
X2221Y1267D02*
X2253Y1273D01*
X2224Y1264*
X2221Y1567D02*
X2253Y1573D01*
X2224Y1564*
X2221Y1867D02*
X2253Y1873D01*
X2224Y1864*
X2223Y2646D02*
G75*
G03Y2640J-3D01*
G01*
G75*
G03Y2646J3*
G01*
X2227Y660D02*
X2253Y673D01*
X2230Y657*
X2227Y960D02*
X2253Y973D01*
X2230Y957*
X2227Y1260D02*
X2253Y1273D01*
X2230Y1257*
X2227Y1560D02*
X2253Y1573D01*
X2230Y1557*
X2227Y1860D02*
X2253Y1873D01*
X2230Y1857*
X2234Y654D02*
X2260Y680D01*
X2234Y954D02*
X2260Y980D01*
X2234Y1254D02*
X2260Y1280D01*
X2234Y1554D02*
X2260Y1580D01*
X2234Y1854D02*
X2260Y1880D01*
X2237Y650D02*
X2253Y673D01*
X2217Y670*
X2237Y950D02*
X2253Y973D01*
X2217Y970*
X2237Y1250D02*
X2253Y1273D01*
X2217Y1270*
X2237Y1550D02*
X2253Y1573D01*
X2217Y1570*
X2237Y1850D02*
X2253Y1873D01*
X2217Y1870*
X2244Y644D02*
X2253Y673D01*
X2240Y647*
X2244Y944D02*
X2253Y973D01*
X2240Y947*
X2244Y1244D02*
X2253Y1273D01*
X2240Y1247*
X2244Y1544D02*
X2253Y1573D01*
X2240Y1547*
X2244Y1844D02*
X2253Y1873D01*
X2240Y1847*
X2250Y637D02*
X2253Y673D01*
X2247Y641*
X2250Y937D02*
X2253Y973D01*
X2247Y941*
X2250Y1237D02*
X2253Y1273D01*
X2247Y1241*
X2250Y1537D02*
X2253Y1573D01*
X2247Y1541*
X2250Y1837D02*
X2253Y1873D01*
X2247Y1841*
X2261Y2713D02*
G75*
G03X2297Y2777I-38J65D01*
G01*
Y2828*
G75*
G03X2259Y2893I-75*
G01*
X2271Y656D02*
X2236Y691D01*
X2271Y956D02*
X2236Y991D01*
X2271Y1256D02*
X2236Y1291D01*
X2271Y1556D02*
X2236Y1591D01*
X2271Y1856D02*
X2236Y1891D01*
X2380Y412D02*
X2026D01*
Y293*
X2380*
Y412*
X2463Y522D02*
G75*
G03X2534Y593I5J66D01*
G01*
X2463Y822D02*
G75*
G03X2534Y893I5J66D01*
G01*
X2463Y1122D02*
G75*
G03X2534Y1193I5J66D01*
G01*
X2463Y1422D02*
G75*
G03X2534Y1493I5J66D01*
G01*
X2463Y1722D02*
G75*
G03X2534Y1793I5J66D01*
G01*
X2473Y654D02*
G75*
G03X2402Y583I-5J-66D01*
G01*
X2473Y954D02*
G75*
G03X2402Y883I-5J-66D01*
G01*
X2473Y1254D02*
G75*
G03X2402Y1183I-5J-66D01*
G01*
X2473Y1554D02*
G75*
G03X2402Y1483I-5J-66D01*
G01*
X2473Y1854D02*
G75*
G03X2402Y1783I-5J-66D01*
G01*
X2521Y667D02*
X2553Y673D01*
X2524Y664*
X2521Y967D02*
X2553Y973D01*
X2524Y964*
X2521Y1267D02*
X2553Y1273D01*
X2524Y1264*
X2521Y1567D02*
X2553Y1573D01*
X2524Y1564*
X2521Y1867D02*
X2553Y1873D01*
X2524Y1864*
X2527Y660D02*
X2553Y673D01*
X2530Y657*
X2527Y960D02*
X2553Y973D01*
X2530Y957*
X2527Y1260D02*
X2553Y1273D01*
X2530Y1257*
X2527Y1560D02*
X2553Y1573D01*
X2530Y1557*
X2527Y1860D02*
X2553Y1873D01*
X2530Y1857*
X2534Y654D02*
X2560Y680D01*
X2534Y954D02*
X2560Y980D01*
X2534Y1254D02*
X2560Y1280D01*
X2534Y1554D02*
X2560Y1580D01*
X2534Y1854D02*
X2560Y1880D01*
X2537Y650D02*
X2553Y673D01*
X2517Y670*
X2537Y950D02*
X2553Y973D01*
X2517Y970*
X2537Y1250D02*
X2553Y1273D01*
X2517Y1270*
X2537Y1550D02*
X2553Y1573D01*
X2517Y1570*
X2537Y1850D02*
X2553Y1873D01*
X2517Y1870*
X2544Y644D02*
X2553Y673D01*
X2540Y647*
X2544Y944D02*
X2553Y973D01*
X2540Y947*
X2544Y1244D02*
X2553Y1273D01*
X2540Y1247*
X2544Y1544D02*
X2553Y1573D01*
X2540Y1547*
X2544Y1844D02*
X2553Y1873D01*
X2540Y1847*
X2550Y637D02*
X2553Y673D01*
X2547Y641*
X2550Y937D02*
X2553Y973D01*
X2547Y941*
X2550Y1237D02*
X2553Y1273D01*
X2547Y1241*
X2550Y1537D02*
X2553Y1573D01*
X2547Y1541*
X2550Y1837D02*
X2553Y1873D01*
X2547Y1841*
X2571Y656D02*
X2536Y691D01*
X2571Y956D02*
X2536Y991D01*
X2571Y1256D02*
X2536Y1291D01*
X2571Y1556D02*
X2536Y1591D01*
X2571Y1856D02*
X2536Y1891D01*
X2687Y312D02*
Y219D01*
X2707Y148D02*
X2902D01*
Y384D02*
X2719D01*
X2923Y219D02*
Y313D01*
X2924Y4050D02*
Y3696D01*
X3042*
Y4050*
X2924*
X3039Y4402D02*
G75*
G03X3039Y4303I43J-50D01*
G01*
X3064Y4446D02*
X3083Y4474D01*
X3069Y4446*
X3073D02*
X3083Y4474D01*
X3078Y4446*
X3083D02*
Y4484D01*
X3087Y4446D02*
X3083Y4474D01*
X3059Y4446*
X3096D02*
X3083Y4474D01*
X3092Y4446*
X3106D02*
X3083Y4474D01*
X3101Y4446*
X3108Y4474D02*
X3058D01*
X3126Y4303D02*
G75*
G03X3126Y4402I-43J50D01*
G01*
D02*
D118*
X217Y3978D02*
X254D01*
Y3956*
X251Y3949*
X245Y3946*
X239Y3949*
X236Y3956*
Y3978*
Y3956D02*
X217Y3946D01*
Y3921D02*
Y3909D01*
Y3915D02*
X254D01*
X248Y3921*
X217Y3871D02*
Y3859D01*
Y3865D02*
X254D01*
X248Y3871*
X207Y4449D02*
Y4412D01*
X239*
X258D02*
Y4449D01*
X289*
X282Y4431D02*
X258D01*
Y4412D02*
X289D01*
X308D02*
Y4449D01*
X326*
X333Y4446*
X336Y4443*
X339Y4437*
Y4424*
X336Y4418*
X333Y4415*
X326Y4412*
X308*
X383D02*
X358D01*
X379Y4434*
X383Y4440*
X379Y4446*
X373Y4449*
X364*
X358Y4446*
X407Y4421D02*
X411Y4428D01*
X417Y4431*
X423*
X429Y4428*
X433Y4421*
X429Y4415*
X423Y4412*
X417*
X411Y4415*
X407Y4421*
Y4431*
X411Y4440*
X417Y4446*
X423Y4449*
X414Y3162D02*
Y3199D01*
X435*
X442Y3196*
X445Y3190*
X442Y3184*
X435Y3181*
X414*
X435D02*
X445Y3162D01*
X489D02*
X464D01*
X485Y3184*
X489Y3190*
X485Y3196*
X479Y3199*
X470*
X464Y3196*
X433Y3062D02*
Y3099D01*
X454*
X461Y3096*
X464Y3090*
X461Y3084*
X454Y3081*
X433*
X454D02*
X464Y3062D01*
X489D02*
X501D01*
X495D02*
Y3099D01*
X489Y3093*
X561Y3203D02*
Y3228D01*
X573Y3209D02*
X548Y3221D01*
Y3209D02*
X573Y3221D01*
X683Y2887D02*
Y2924D01*
X704*
X711Y2921*
X714Y2915*
X711Y2909*
X704Y2906*
X683*
X704D02*
X714Y2887D01*
X742Y2906D02*
X748D01*
X754Y2909*
X758Y2915*
X754Y2921*
X748Y2924*
X742*
X736Y2921*
X733Y2915*
X736Y2909*
X742Y2906*
X736Y2903*
X733Y2896*
X736Y2890*
X742Y2887*
X748*
X754Y2890*
X758Y2896*
X754Y2903*
X748Y2906*
X830Y250D02*
X845Y288D01*
X861Y250*
X836Y266D02*
X855D01*
X1014Y3068D02*
X1011Y3065D01*
X1004Y3062*
X995*
X989Y3065*
X986Y3068*
X983Y3074*
Y3087*
X986Y3093*
X989Y3096*
X995Y3099*
X1004*
X1011Y3096*
X1014Y3093*
X1039Y3062D02*
X1051D01*
X1045D02*
Y3099D01*
X1039Y3093*
X1058Y2887D02*
Y2924D01*
X1079*
X1086Y2921*
X1089Y2915*
X1086Y2909*
X1079Y2906*
X1058*
X1079D02*
X1089Y2887D01*
X1108D02*
Y2924D01*
X1139*
X1133Y2906D02*
X1108D01*
Y2887D02*
X1139D01*
X1158Y2896D02*
X1161Y2890D01*
X1167Y2887*
X1179*
X1186Y2890*
X1189Y2896*
X1186Y2903*
X1179Y2906*
X1167*
X1161Y2909*
X1158Y2915*
X1161Y2921*
X1167Y2924*
X1179*
X1186Y2921*
X1189Y2915*
X1208Y2887D02*
Y2924D01*
X1239*
X1233Y2906D02*
X1208D01*
Y2887D02*
X1239D01*
X1273D02*
Y2924D01*
X1258D02*
X1289D01*
X1164Y621D02*
X1191Y594D01*
X1213Y617*
X1226Y630D02*
X1199Y656D01*
X1221Y678*
X1230Y661D02*
X1213Y643D01*
X1226Y630D02*
X1248Y652D01*
X1261Y665D02*
X1235Y692D01*
X1248Y705*
X1255Y707*
X1259*
X1266Y705*
X1274Y696*
X1277Y690*
Y685*
X1274Y678*
X1261Y665*
X1301Y705D02*
X1310Y714D01*
X1305Y709D02*
X1279Y736D01*
Y727*
X1164Y921D02*
X1191Y894D01*
X1213Y917*
X1226Y930D02*
X1199Y956D01*
X1221Y978*
X1230Y961D02*
X1213Y943D01*
X1226Y930D02*
X1248Y952D01*
X1261Y965D02*
X1235Y992D01*
X1248Y1005*
X1255Y1007*
X1259*
X1266Y1005*
X1274Y996*
X1277Y990*
Y985*
X1274Y978*
X1261Y965*
X1314Y1018D02*
X1297Y1001D01*
X1297Y1031*
X1294Y1038*
X1288Y1040*
X1281Y1038*
X1274Y1031*
X1272Y1025*
X1164Y1221D02*
X1191Y1194D01*
X1213Y1217*
X1226Y1230D02*
X1199Y1256D01*
X1221Y1278*
X1230Y1261D02*
X1213Y1243D01*
X1226Y1230D02*
X1248Y1252D01*
X1261Y1265D02*
X1235Y1292D01*
X1248Y1305*
X1255Y1307*
X1259*
X1266Y1305*
X1274Y1296*
X1277Y1290*
Y1285*
X1274Y1278*
X1261Y1265*
X1297Y1305D02*
X1303Y1307D01*
X1308Y1312*
X1310Y1318*
X1308Y1325*
X1301Y1327*
X1294Y1325*
X1290Y1320*
X1294Y1325D02*
X1297Y1331D01*
X1294Y1338*
X1288Y1340*
X1281Y1338*
X1277Y1334*
X1274Y1327*
X1164Y1521D02*
X1191Y1494D01*
X1213Y1517*
X1226Y1530D02*
X1199Y1556D01*
X1221Y1578*
X1230Y1561D02*
X1213Y1543D01*
X1226Y1530D02*
X1248Y1552D01*
X1261Y1565D02*
X1235Y1592D01*
X1248Y1605*
X1255Y1607*
X1259*
X1266Y1605*
X1274Y1596*
X1277Y1590*
Y1585*
X1274Y1578*
X1261Y1565*
X1308Y1612D02*
X1281Y1638D01*
X1288Y1609*
X1305Y1627*
X1164Y1821D02*
X1191Y1794D01*
X1213Y1817*
X1226Y1830D02*
X1199Y1856D01*
X1221Y1878*
X1230Y1861D02*
X1213Y1843D01*
X1226Y1830D02*
X1248Y1852D01*
X1261Y1865D02*
X1235Y1892D01*
X1248Y1905*
X1255Y1907*
X1259*
X1266Y1905*
X1274Y1896*
X1277Y1890*
Y1885*
X1274Y1878*
X1261Y1865*
X1294Y1903D02*
X1301Y1905D01*
X1308Y1912*
X1310Y1918*
X1308Y1925*
X1305Y1927*
X1299Y1929*
X1292Y1927*
X1281Y1916*
X1270Y1927*
X1288Y1945*
X1464Y621D02*
X1491Y594D01*
X1513Y617*
X1526Y630D02*
X1499Y656D01*
X1521Y678*
X1530Y661D02*
X1513Y643D01*
X1526Y630D02*
X1548Y652D01*
X1561Y665D02*
X1535Y692D01*
X1548Y705*
X1555Y707*
X1559*
X1566Y705*
X1574Y696*
X1577Y690*
Y685*
X1574Y678*
X1561Y665*
X1590Y707D02*
X1588Y714D01*
X1590Y720*
X1594Y725*
X1601Y727*
X1608Y725*
X1610Y718*
X1608Y712*
X1603Y707*
X1597Y705*
X1590Y707*
X1583Y714*
X1579Y723*
X1579Y731*
X1581Y738*
X1464Y921D02*
X1491Y894D01*
X1513Y917*
X1526Y930D02*
X1499Y956D01*
X1521Y978*
X1530Y961D02*
X1513Y943D01*
X1526Y930D02*
X1548Y952D01*
X1561Y965D02*
X1535Y992D01*
X1548Y1005*
X1555Y1007*
X1559*
X1566Y1005*
X1574Y996*
X1577Y990*
Y985*
X1574Y978*
X1561Y965*
X1597Y1001D02*
X1588Y1045D01*
X1570Y1027*
X1464Y1221D02*
X1491Y1194D01*
X1513Y1217*
X1526Y1230D02*
X1499Y1256D01*
X1521Y1278*
X1530Y1261D02*
X1513Y1243D01*
X1526Y1230D02*
X1548Y1252D01*
X1561Y1265D02*
X1535Y1292D01*
X1548Y1305*
X1555Y1307*
X1559*
X1566Y1305*
X1574Y1296*
X1577Y1290*
Y1285*
X1574Y1278*
X1561Y1265*
X1590Y1320D02*
X1594Y1325D01*
X1597Y1331*
X1594Y1338*
X1588Y1340*
X1581Y1338*
X1577Y1334*
X1574Y1327*
X1577Y1320*
X1583Y1318*
X1590Y1320*
X1588Y1314*
X1590Y1307*
X1597Y1305*
X1603Y1307*
X1608Y1312*
X1610Y1318*
X1608Y1325*
X1601Y1327*
X1594Y1325*
X1464Y1521D02*
X1491Y1494D01*
X1513Y1517*
X1526Y1530D02*
X1499Y1556D01*
X1521Y1578*
X1530Y1561D02*
X1513Y1543D01*
X1526Y1530D02*
X1548Y1552D01*
X1561Y1565D02*
X1535Y1592D01*
X1548Y1605*
X1555Y1607*
X1559*
X1566Y1605*
X1574Y1596*
X1577Y1590*
Y1585*
X1574Y1578*
X1561Y1565*
X1603Y1607D02*
X1605Y1614D01*
Y1623*
X1601Y1631*
X1594Y1638*
X1588Y1640*
X1581Y1638*
X1577Y1634*
X1574Y1627*
X1577Y1620*
X1583Y1618*
X1590Y1620*
X1594Y1625*
X1597Y1631*
X1594Y1638*
X1464Y1821D02*
X1491Y1794D01*
X1513Y1817*
X1526Y1830D02*
X1499Y1856D01*
X1521Y1878*
X1530Y1861D02*
X1513Y1843D01*
X1526Y1830D02*
X1548Y1852D01*
X1561Y1865D02*
X1535Y1892D01*
X1548Y1905*
X1555Y1907*
X1559*
X1566Y1905*
X1574Y1896*
X1577Y1890*
Y1885*
X1574Y1878*
X1561Y1865*
X1601Y1905D02*
X1610Y1914D01*
X1605Y1909D02*
X1579Y1936D01*
Y1927*
X1632Y1940D02*
X1639Y1943D01*
X1643Y1947*
X1645Y1954*
X1643Y1960*
X1630Y1973*
X1623Y1976*
X1616Y1973*
X1612Y1969*
X1610Y1962*
X1612Y1956*
X1625Y1943*
X1632Y1940*
X1623Y1976*
X1533Y312D02*
Y349D01*
X1554*
X1561Y346*
X1564Y340*
X1561Y334*
X1554Y331*
X1533*
X1554D02*
X1564Y312D01*
X1592D02*
X1598Y315D01*
X1604Y321*
X1608Y331*
Y340*
X1604Y346*
X1598Y349*
X1592*
X1586Y346*
X1583Y340*
X1586Y334*
X1592Y331*
X1598*
X1604Y334*
X1608Y340*
X1733Y2112D02*
Y2149D01*
X1754*
X1761Y2146*
X1764Y2140*
X1761Y2134*
X1754Y2131*
X1733*
X1754D02*
X1764Y2112D01*
X1786Y2115D02*
X1792Y2112D01*
X1798*
X1804Y2115*
X1808Y2121*
X1804Y2128*
X1798Y2131*
X1792*
X1798D02*
X1804Y2134D01*
X1808Y2140*
X1804Y2146*
X1798Y2149*
X1792*
X1786Y2146*
X1733Y2212D02*
Y2249D01*
X1754*
X1761Y2246*
X1764Y2240*
X1761Y2234*
X1754Y2231*
X1733*
X1754D02*
X1764Y2212D01*
X1798D02*
Y2249D01*
X1783Y2224*
X1808*
X1733Y2312D02*
Y2349D01*
X1754*
X1761Y2346*
X1764Y2340*
X1761Y2334*
X1754Y2331*
X1733*
X1754D02*
X1764Y2312D01*
X1783Y2315D02*
X1789Y2312D01*
X1798*
X1804Y2315*
X1808Y2321*
Y2324*
X1804Y2331*
X1798Y2334*
X1783*
Y2349*
X1808*
X1733Y2412D02*
Y2449D01*
X1754*
X1761Y2446*
X1764Y2440*
X1761Y2434*
X1754Y2431*
X1733*
X1754D02*
X1764Y2412D01*
X1783Y2421D02*
X1786Y2428D01*
X1792Y2431*
X1798*
X1804Y2428*
X1808Y2421*
X1804Y2415*
X1798Y2412*
X1792*
X1786Y2415*
X1783Y2421*
Y2431*
X1786Y2440*
X1792Y2446*
X1798Y2449*
X1733Y2512D02*
Y2549D01*
X1754*
X1761Y2546*
X1764Y2540*
X1761Y2534*
X1754Y2531*
X1733*
X1754D02*
X1764Y2512D01*
X1783D02*
X1808Y2549D01*
X1783*
X1764Y621D02*
X1791Y594D01*
X1813Y617*
X1826Y630D02*
X1799Y656D01*
X1821Y678*
X1830Y661D02*
X1813Y643D01*
X1826Y630D02*
X1848Y652D01*
X1861Y665D02*
X1835Y692D01*
X1848Y705*
X1855Y707*
X1859*
X1866Y705*
X1874Y696*
X1877Y690*
Y685*
X1874Y678*
X1861Y665*
X1901Y705D02*
X1910Y714D01*
X1905Y709D02*
X1879Y736D01*
Y727*
X1936Y740D02*
X1945Y749D01*
X1941Y745D02*
X1914Y771D01*
Y762*
X1764Y921D02*
X1791Y894D01*
X1813Y917*
X1826Y930D02*
X1799Y956D01*
X1821Y978*
X1830Y961D02*
X1813Y943D01*
X1826Y930D02*
X1848Y952D01*
X1861Y965D02*
X1835Y992D01*
X1848Y1005*
X1855Y1007*
X1859*
X1866Y1005*
X1874Y996*
X1877Y990*
Y985*
X1874Y978*
X1861Y965*
X1901Y1005D02*
X1910Y1014D01*
X1905Y1009D02*
X1879Y1036D01*
Y1027*
X1950Y1054D02*
X1932Y1036D01*
Y1067*
X1930Y1073*
X1923Y1076*
X1916Y1073*
X1910Y1067*
X1908Y1060*
X1764Y1221D02*
X1791Y1194D01*
X1813Y1217*
X1826Y1230D02*
X1799Y1256D01*
X1821Y1278*
X1830Y1261D02*
X1813Y1243D01*
X1826Y1230D02*
X1848Y1252D01*
X1861Y1265D02*
X1835Y1292D01*
X1848Y1305*
X1855Y1307*
X1859*
X1866Y1305*
X1874Y1296*
X1877Y1290*
Y1285*
X1874Y1278*
X1861Y1265*
X1901Y1305D02*
X1910Y1314D01*
X1905Y1309D02*
X1879Y1336D01*
Y1327*
X1932Y1340D02*
X1939Y1343D01*
X1943Y1347*
X1945Y1354*
X1943Y1360*
X1936Y1362*
X1930Y1360*
X1925Y1356*
X1930Y1360D02*
X1932Y1367D01*
X1930Y1373*
X1923Y1376*
X1916Y1373*
X1912Y1369*
X1910Y1362*
X1764Y1521D02*
X1791Y1494D01*
X1813Y1517*
X1826Y1530D02*
X1799Y1556D01*
X1821Y1578*
X1830Y1561D02*
X1813Y1543D01*
X1826Y1530D02*
X1848Y1552D01*
X1861Y1565D02*
X1835Y1592D01*
X1848Y1605*
X1855Y1607*
X1859*
X1866Y1605*
X1874Y1596*
X1877Y1590*
Y1585*
X1874Y1578*
X1861Y1565*
X1901Y1605D02*
X1910Y1614D01*
X1905Y1609D02*
X1879Y1636D01*
Y1627*
X1943Y1647D02*
X1916Y1673D01*
X1923Y1645*
X1941Y1662*
X1764Y1821D02*
X1791Y1794D01*
X1813Y1817*
X1826Y1830D02*
X1799Y1856D01*
X1821Y1878*
X1830Y1861D02*
X1813Y1843D01*
X1826Y1830D02*
X1848Y1852D01*
X1861Y1865D02*
X1835Y1892D01*
X1848Y1905*
X1855Y1907*
X1859*
X1866Y1905*
X1874Y1896*
X1877Y1890*
Y1885*
X1874Y1878*
X1861Y1865*
X1901Y1905D02*
X1910Y1914D01*
X1905Y1909D02*
X1879Y1936D01*
Y1927*
X1930Y1938D02*
X1936Y1940D01*
X1943Y1947*
X1945Y1954*
X1943Y1960*
X1941Y1962*
X1934Y1965*
X1928Y1962*
X1916Y1951*
X1905Y1962*
X1923Y1980*
X1942Y2734D02*
X1945Y2731D01*
X1948Y2724*
Y2715*
X1945Y2709*
X1942Y2706*
X1936Y2703*
X1923*
X1917Y2706*
X1914Y2709*
X1911Y2715*
Y2724*
X1914Y2731*
X1917Y2734*
X1948Y2768D02*
X1911D01*
X1936Y2753*
Y2778*
X1972Y3042D02*
X2004Y3079D01*
X1972D02*
X2004Y3042D01*
X2038D02*
Y3079D01*
X2023D02*
X2054D01*
X2072Y3042D02*
X2088Y3079D01*
X2104Y3042*
X2079Y3058D02*
X2098D01*
X2123Y3079D02*
Y3042D01*
X2154*
X2176Y3045D02*
X2182Y3042D01*
X2188*
X2194Y3045*
X2197Y3051*
X2194Y3058*
X2188Y3061*
X2182*
X2188D02*
X2194Y3064D01*
X2197Y3070*
X2194Y3076*
X2188Y3079*
X2182*
X2176Y3076*
X2064Y621D02*
X2091Y594D01*
X2113Y617*
X2126Y630D02*
X2099Y656D01*
X2121Y678*
X2130Y661D02*
X2113Y643D01*
X2126Y630D02*
X2148Y652D01*
X2161Y665D02*
X2135Y692D01*
X2148Y705*
X2155Y707*
X2159*
X2166Y705*
X2174Y696*
X2177Y690*
Y685*
X2174Y678*
X2161Y665*
X2201Y705D02*
X2210Y714D01*
X2205Y709D02*
X2179Y736D01*
Y727*
X2225Y743D02*
X2223Y749D01*
X2225Y756*
X2230Y760*
X2236Y762*
X2243Y760*
X2245Y754*
X2243Y747*
X2239Y743*
X2232Y740*
X2225Y743*
X2219Y749*
X2214Y758*
Y767*
X2216Y773*
X2064Y921D02*
X2091Y894D01*
X2113Y917*
X2126Y930D02*
X2099Y956D01*
X2121Y978*
X2130Y961D02*
X2113Y943D01*
X2126Y930D02*
X2148Y952D01*
X2161Y965D02*
X2135Y992D01*
X2148Y1005*
X2155Y1007*
X2159*
X2166Y1005*
X2174Y996*
X2177Y990*
Y985*
X2174Y978*
X2161Y965*
X2201Y1005D02*
X2210Y1014D01*
X2205Y1009D02*
X2179Y1036D01*
Y1027*
X2232Y1036D02*
X2223Y1080D01*
X2205Y1062*
X2064Y1221D02*
X2091Y1194D01*
X2113Y1217*
X2126Y1230D02*
X2099Y1256D01*
X2121Y1278*
X2130Y1261D02*
X2113Y1243D01*
X2126Y1230D02*
X2148Y1252D01*
X2161Y1265D02*
X2135Y1292D01*
X2148Y1305*
X2155Y1307*
X2159*
X2166Y1305*
X2174Y1296*
X2177Y1290*
Y1285*
X2174Y1278*
X2161Y1265*
X2201Y1305D02*
X2210Y1314D01*
X2205Y1309D02*
X2179Y1336D01*
Y1327*
X2225Y1356D02*
X2230Y1360D01*
X2232Y1367*
X2230Y1373*
X2223Y1376*
X2216Y1373*
X2212Y1369*
X2210Y1362*
X2212Y1356*
X2219Y1354*
X2225Y1356*
X2223Y1349*
X2225Y1343*
X2232Y1340*
X2239Y1343*
X2243Y1347*
X2245Y1354*
X2243Y1360*
X2236Y1362*
X2230Y1360*
X2064Y1521D02*
X2091Y1494D01*
X2113Y1517*
X2126Y1530D02*
X2099Y1556D01*
X2121Y1578*
X2130Y1561D02*
X2113Y1543D01*
X2126Y1530D02*
X2148Y1552D01*
X2161Y1565D02*
X2135Y1592D01*
X2148Y1605*
X2155Y1607*
X2159*
X2166Y1605*
X2174Y1596*
X2177Y1590*
Y1585*
X2174Y1578*
X2161Y1565*
X2201Y1605D02*
X2210Y1614D01*
X2205Y1609D02*
X2179Y1636D01*
Y1627*
X2239Y1643D02*
X2241Y1649D01*
Y1658*
X2236Y1667*
X2230Y1673*
X2223Y1676*
X2216Y1673*
X2212Y1669*
X2210Y1662*
X2212Y1656*
X2219Y1654*
X2225Y1656*
X2230Y1660*
X2232Y1667*
X2230Y1673*
X2064Y1821D02*
X2091Y1794D01*
X2113Y1817*
X2126Y1830D02*
X2099Y1856D01*
X2121Y1878*
X2130Y1861D02*
X2113Y1843D01*
X2126Y1830D02*
X2148Y1852D01*
X2161Y1865D02*
X2135Y1892D01*
X2148Y1905*
X2155Y1907*
X2159*
X2166Y1905*
X2174Y1896*
X2177Y1890*
Y1885*
X2174Y1878*
X2161Y1865*
X2214Y1918D02*
X2197Y1901D01*
X2197Y1931*
X2194Y1938*
X2188Y1940*
X2181Y1938*
X2174Y1931*
X2172Y1925*
X2232Y1940D02*
X2239Y1943D01*
X2243Y1947*
X2245Y1954*
X2243Y1960*
X2230Y1973*
X2223Y1976*
X2216Y1973*
X2212Y1969*
X2210Y1962*
X2212Y1956*
X2225Y1943*
X2232Y1940*
X2223Y1976*
X2133Y362D02*
Y399D01*
X2154*
X2161Y396*
X2164Y390*
X2161Y384*
X2154Y381*
X2133*
X2154D02*
X2164Y362D01*
X2189D02*
X2201D01*
X2195D02*
Y399D01*
X2189Y393*
X2236Y365D02*
X2242Y362D01*
X2248*
X2254Y365*
X2258Y371*
Y390*
X2254Y396*
X2248Y399*
X2242*
X2236Y396*
X2233Y390*
Y371*
X2236Y365*
X2254Y396*
X2232Y2684D02*
X2235Y2681D01*
X2238Y2674*
Y2665*
X2235Y2659*
X2232Y2656*
X2226Y2653*
X2213*
X2207Y2656*
X2204Y2659*
X2201Y2665*
Y2674*
X2204Y2681*
X2207Y2684*
X2235Y2703D02*
X2238Y2709D01*
Y2718*
X2235Y2724*
X2229Y2728*
X2226*
X2219Y2724*
X2216Y2718*
Y2703*
X2201*
Y2728*
X2364Y621D02*
X2391Y594D01*
X2413Y617*
X2426Y630D02*
X2399Y656D01*
X2421Y678*
X2430Y661D02*
X2413Y643D01*
X2426Y630D02*
X2448Y652D01*
X2461Y665D02*
X2435Y692D01*
X2448Y705*
X2455Y707*
X2459*
X2466Y705*
X2474Y696*
X2477Y690*
Y685*
X2474Y678*
X2461Y665*
X2514Y718D02*
X2497Y701D01*
X2497Y731*
X2494Y738*
X2488Y740*
X2481Y738*
X2474Y731*
X2472Y725*
X2536Y740D02*
X2545Y749D01*
X2541Y745D02*
X2514Y771D01*
Y762*
X2364Y921D02*
X2391Y894D01*
X2413Y917*
X2426Y930D02*
X2399Y956D01*
X2421Y978*
X2430Y961D02*
X2413Y943D01*
X2426Y930D02*
X2448Y952D01*
X2461Y965D02*
X2435Y992D01*
X2448Y1005*
X2455Y1007*
X2459*
X2466Y1005*
X2474Y996*
X2477Y990*
Y985*
X2474Y978*
X2461Y965*
X2514Y1018D02*
X2497Y1001D01*
X2497Y1031*
X2494Y1038*
X2488Y1040*
X2481Y1038*
X2474Y1031*
X2472Y1025*
X2550Y1054D02*
X2532Y1036D01*
Y1067*
X2530Y1073*
X2523Y1076*
X2516Y1073*
X2510Y1067*
X2508Y1060*
X2364Y1221D02*
X2391Y1194D01*
X2413Y1217*
X2426Y1230D02*
X2399Y1256D01*
X2421Y1278*
X2430Y1261D02*
X2413Y1243D01*
X2426Y1230D02*
X2448Y1252D01*
X2461Y1265D02*
X2435Y1292D01*
X2448Y1305*
X2455Y1307*
X2459*
X2466Y1305*
X2474Y1296*
X2477Y1290*
Y1285*
X2474Y1278*
X2461Y1265*
X2514Y1318D02*
X2497Y1301D01*
X2497Y1331*
X2494Y1338*
X2488Y1340*
X2481Y1338*
X2474Y1331*
X2472Y1325*
X2532Y1340D02*
X2539Y1343D01*
X2543Y1347*
X2545Y1354*
X2543Y1360*
X2536Y1362*
X2530Y1360*
X2525Y1356*
X2530Y1360D02*
X2532Y1367D01*
X2530Y1373*
X2523Y1376*
X2516Y1373*
X2512Y1369*
X2510Y1362*
X2364Y1521D02*
X2391Y1494D01*
X2413Y1517*
X2426Y1530D02*
X2399Y1556D01*
X2421Y1578*
X2430Y1561D02*
X2413Y1543D01*
X2426Y1530D02*
X2448Y1552D01*
X2461Y1565D02*
X2435Y1592D01*
X2448Y1605*
X2455Y1607*
X2459*
X2466Y1605*
X2474Y1596*
X2477Y1590*
Y1585*
X2474Y1578*
X2461Y1565*
X2514Y1618D02*
X2497Y1601D01*
X2497Y1631*
X2494Y1638*
X2488Y1640*
X2481Y1638*
X2474Y1631*
X2472Y1625*
X2543Y1647D02*
X2516Y1673D01*
X2523Y1645*
X2541Y1662*
X2364Y1821D02*
X2391Y1794D01*
X2413Y1817*
X2426Y1830D02*
X2399Y1856D01*
X2421Y1878*
X2430Y1861D02*
X2413Y1843D01*
X2426Y1830D02*
X2448Y1852D01*
X2461Y1865D02*
X2435Y1892D01*
X2448Y1905*
X2455Y1907*
X2459*
X2466Y1905*
X2474Y1896*
X2477Y1890*
Y1885*
X2474Y1878*
X2461Y1865*
X2514Y1918D02*
X2497Y1901D01*
X2497Y1931*
X2494Y1938*
X2488Y1940*
X2481Y1938*
X2474Y1931*
X2472Y1925*
X2530Y1938D02*
X2536Y1940D01*
X2543Y1947*
X2545Y1954*
X2543Y1960*
X2541Y1962*
X2534Y1965*
X2528Y1962*
X2516Y1951*
X2505Y1962*
X2523Y1980*
X2676Y269D02*
X2683Y266D01*
X2686Y260*
X2683Y254*
X2676Y250*
X2655*
Y288*
X2676*
X2683Y285*
X2686Y279*
X2683Y272*
X2676Y269*
X2655*
X2783Y4374D02*
Y4337D01*
X2814*
X2833D02*
Y4374D01*
X2864*
X2858Y4356D02*
X2833D01*
Y4337D02*
X2864D01*
X2883D02*
Y4374D01*
X2901*
X2908Y4371*
X2911Y4368*
X2914Y4362*
Y4349*
X2911Y4343*
X2908Y4340*
X2901Y4337*
X2883*
X2958D02*
X2933D01*
X2954Y4359*
X2958Y4365*
X2954Y4371*
X2948Y4374*
X2939*
X2933Y4371*
X2983Y4337D02*
X3008Y4374D01*
X2983*
X2967Y4023D02*
X3004D01*
Y4001*
X3001Y3994*
X2995Y3991*
X2989Y3994*
X2986Y4001*
Y4023*
Y4001D02*
X2967Y3991D01*
Y3966D02*
Y3954D01*
Y3960D02*
X3004D01*
X2998Y3966*
X2967Y3898D02*
Y3923D01*
X2989Y3901*
X2995Y3898*
X3001Y3901*
X3004Y3907*
Y3916*
X3001Y3923*
D02*
D137*
X1083Y4303D02*
X1583D01*
Y4403*
X1083*
Y4303*
D02*
D144*
X133Y4403D03*
X258Y4118D03*
X345Y3078D03*
Y3178D03*
X392Y2878D03*
X583Y3303D03*
X852Y355D03*
X1081Y3153D03*
X1106Y2747D03*
X1133Y4353D03*
X1233D03*
X1292Y353D03*
X1333Y4353D03*
X1433D03*
X1533D03*
X1592Y2103D03*
Y2203D03*
Y2303D03*
Y2403D03*
Y2503D03*
X2031Y3058D03*
X2033Y2703D03*
X2223D03*
X2473Y353D03*
X2677Y355D03*
X2983Y4143D03*
X3083Y4403D03*
D02*
D145*
X108Y4178D03*
X133Y4303D03*
X258Y3578D03*
X393Y4113D03*
X458Y4253D03*
X583Y4003D03*
X683Y3303D03*
Y3853D03*
Y4003D03*
X783Y3078D03*
Y3178D03*
Y3303D03*
Y4003D03*
X852Y178D03*
X883Y2753D03*
Y3303D03*
Y4003D03*
X933Y2878D03*
X983Y3153D03*
Y3303D03*
Y3678D03*
Y3853D03*
Y4003D03*
X1083Y3303D03*
Y4003D03*
X1106Y3003D03*
X1108Y178D03*
Y355D03*
X1183Y3303D03*
Y4003D03*
X1233Y553D03*
Y853D03*
Y1153D03*
Y1453D03*
Y1753D03*
X1283Y2747D03*
Y3003D03*
Y3153D03*
Y3303D03*
Y4003D03*
X1383Y3303D03*
Y4003D03*
X1408Y678D03*
Y953D03*
Y1053D03*
Y1252D03*
Y1353D03*
Y1553D03*
Y1653D03*
Y1853D03*
X1483Y3303D03*
Y4003D03*
X1533Y553D03*
Y853D03*
Y1153D03*
Y1453D03*
Y1753D03*
X1583Y3153D03*
Y3303D03*
Y3678D03*
Y4003D03*
X1683Y2603D03*
Y3028D03*
Y3303D03*
Y4003D03*
X1708Y678D03*
Y953D03*
Y1053D03*
Y1252D03*
Y1353D03*
Y1553D03*
Y1653D03*
Y1853D03*
X1773Y2603D03*
X1783Y3153D03*
Y3303D03*
Y4003D03*
X1833Y353D03*
Y553D03*
Y853D03*
Y1153D03*
Y1453D03*
Y1753D03*
X1858Y2603D03*
X1883Y3303D03*
Y3403D03*
Y3678D03*
Y4003D03*
Y4103D03*
X1933Y353D03*
X1958Y2603D03*
X1983Y3303D03*
Y3403D03*
Y3678D03*
Y4003D03*
Y4103D03*
X2008Y678D03*
Y953D03*
Y1053D03*
Y1252D03*
Y1353D03*
Y1553D03*
Y1653D03*
Y1853D03*
X2033Y2903D03*
X2058Y2603D03*
X2083Y3303D03*
Y4003D03*
Y4103D03*
X2133Y553D03*
Y853D03*
Y1153D03*
Y1453D03*
Y1753D03*
Y2103D03*
Y2203D03*
Y2303D03*
Y2403D03*
Y2503D03*
X2153Y2603D03*
X2183Y3303D03*
Y4003D03*
Y4103D03*
X2223Y2903D03*
Y3058D03*
X2253Y2603D03*
X2283Y3303D03*
Y3403D03*
Y4003D03*
Y4103D03*
X2308Y678D03*
Y953D03*
Y1053D03*
Y1252D03*
Y1353D03*
Y1553D03*
Y1653D03*
Y1853D03*
X2353Y2603D03*
X2383Y3303D03*
Y3403D03*
Y4003D03*
Y4103D03*
X2433Y553D03*
Y853D03*
Y1153D03*
Y1453D03*
Y1753D03*
X2453Y2603D03*
X2483Y3303D03*
Y4003D03*
Y4103D03*
X2553Y2603D03*
X2583Y3303D03*
Y4003D03*
X2677Y178D03*
X2683Y3303D03*
Y4003D03*
X2933Y178D03*
Y355D03*
X2983Y3603D03*
X3083Y4303D03*
D02*
D146*
X1303Y623D03*
Y923D03*
Y1223D03*
Y1523D03*
Y1823D03*
X1603Y623D03*
Y923D03*
Y1223D03*
Y1523D03*
Y1823D03*
X1903Y623D03*
Y923D03*
Y1223D03*
Y1523D03*
Y1823D03*
X2203Y623D03*
Y923D03*
Y1223D03*
Y1523D03*
Y1823D03*
X2503Y623D03*
Y923D03*
Y1223D03*
Y1523D03*
Y1823D03*
D02*
D147*
X108Y4178D02*
Y3263D01*
X293Y3078*
X345*
X258Y4118D02*
Y4223D01*
X203Y4278*
X133*
Y4303*
X345Y3178D02*
X293D01*
X183Y3288*
Y3793*
X532Y4143*
X1403*
X1433Y4173*
Y4353*
X392Y2878D02*
X558D01*
Y3003*
X1008*
Y2928*
X1183*
Y3303*
X393Y4113D02*
X403D01*
X483Y4193*
X1293*
X1323Y4223*
Y4353*
X1333*
X458Y4253D02*
Y4358D01*
X413Y4403*
X133*
X583Y3303D02*
X318D01*
X258Y3363*
Y3578*
X683Y3303D02*
Y3728D01*
X708Y3753*
X1158*
X1183Y3728*
Y3303*
X683D02*
Y3728D01*
X658Y3753*
X608*
X583Y3778*
Y4003*
X683Y3853D02*
Y4003D01*
Y3853D02*
X983D01*
X783Y3078D02*
X883D01*
Y3303*
X783Y3178D02*
Y3303D01*
Y4003D02*
Y4082D01*
X613*
X583Y4053*
Y4003*
X883Y2753D02*
X1106D01*
Y2747*
X983Y3153D02*
Y3303D01*
Y3678D02*
Y3303D01*
Y3853D02*
X1483D01*
X1081Y3153D02*
X1083D01*
Y3303*
X1106Y2747D02*
Y2753D01*
X1008*
X933Y2828*
Y2878*
X1133Y4353D02*
Y4282D01*
X1103Y4253*
X458*
X1233Y553D02*
X1533D01*
X1233Y853D02*
X1533D01*
X1233D02*
X1208D01*
X958Y1103*
Y1953*
X1408Y2403*
X1592*
X1233Y1153D02*
X1533D01*
X1233Y1453D02*
X1533D01*
X1233Y1753D02*
X1533D01*
X1233D02*
X1183D01*
Y1873*
X1413Y2103*
X1592*
X1283Y3003D02*
Y3153D01*
Y3303D02*
Y3428D01*
X1458Y3603*
X2983*
X1292Y353D02*
Y242D01*
X1153Y103*
X808*
X658Y253*
Y2083*
X1252Y2678*
X1313*
X1383Y2748*
Y3303*
X1292Y353D02*
Y278D01*
X1202*
X1108Y183*
Y178*
X1303Y623D02*
X1408D01*
Y678*
X1303Y1823D02*
X1308D01*
Y1878*
X1358Y1928*
X1408*
Y953D02*
Y1053D01*
Y953D02*
Y1002D01*
X1373*
X1303Y933*
Y923*
X1408Y1252D02*
Y1303D01*
X1383*
X1303Y1223*
X1408Y1353D02*
Y1252D01*
Y1603D02*
Y1653D01*
Y1603D02*
Y1553D01*
Y1603D02*
X1373D01*
X1303Y1533*
Y1523*
X1408Y1853D02*
Y1928D01*
Y1953*
X1483Y2028*
X1633*
X1683Y2078*
Y2603*
X1483Y3853D02*
Y4003D01*
Y3853D02*
X1983D01*
X1533Y553D02*
X1833D01*
X1533Y853D02*
X1833D01*
X1533Y1153D02*
X1833D01*
X1533Y1453D02*
X1833D01*
X1533Y1753D02*
X1833D01*
X1533Y4353D02*
Y4122D01*
X1573Y4082*
X1673*
X1793Y4203*
X2033*
X1583Y3153D02*
Y2753D01*
X1408Y2578*
X1373*
X808Y2013*
Y393*
X846Y355*
X852*
X1583Y4003D02*
Y4082D01*
X783*
X1583D02*
X1663D01*
X1783Y4203*
X2033*
X1592Y2203D02*
X1408D01*
X1108Y1903*
Y1543*
X1198Y1453*
X1233*
X1592Y2303D02*
X1413D01*
X1033Y1923*
Y1323*
X1202Y1153*
X1233*
X1592Y2503D02*
X1403D01*
X883Y1983*
Y883*
X1213Y553*
X1233*
X1603Y923D02*
X1608D01*
Y932*
X1683Y1007*
X1708*
X1603Y1223D02*
X1608D01*
Y1233*
X1678Y1303*
X1708*
X1603Y1523D02*
X1608D01*
Y1533*
X1678Y1603*
X1708*
X1603Y1823D02*
X1608D01*
Y1878*
X1658Y1928*
X1708*
X1683Y3028D02*
X1958D01*
X1708Y678D02*
Y627D01*
X1603*
Y623*
X1708Y1007D02*
Y953D01*
Y1053D02*
Y1007D01*
Y1303D02*
Y1252D01*
Y1353D02*
Y1303D01*
Y1603D02*
Y1553D01*
Y1653D02*
Y1603D01*
Y1928D02*
Y1853D01*
Y1928D02*
X1733D01*
X1773Y1968*
Y2603*
X1783Y3303D02*
Y3153D01*
X1833Y353D02*
X1933D01*
X1833Y553D02*
X2133D01*
X1833Y853D02*
X2133D01*
X1833Y1153D02*
X2133D01*
X1833Y1453D02*
X2133D01*
X1833Y1753D02*
X2133D01*
X1883Y3303D02*
Y3403D01*
Y3678D02*
Y3703D01*
X1833Y3753*
X1208*
X1183Y3728*
Y3303*
X1883Y4103D02*
Y4003D01*
X1903Y923D02*
X1908D01*
Y932*
X1983Y1007*
X2008*
X1903Y1223D02*
X1908D01*
Y1233*
X1978Y1303*
X2008*
X1903Y1523D02*
X1908D01*
Y1528*
X1983Y1603*
X2008*
X1903Y1823D02*
Y1928D01*
X1958*
X2008Y1878*
Y1853*
X1903Y1823D02*
Y1928D01*
X1883*
X1858Y1953*
Y2603*
X1958D02*
Y2028D01*
X2008Y1978*
X2158*
X2208Y1928*
Y1823*
X2203*
X1958Y3028D02*
Y3178D01*
X1983*
Y3303*
Y3403*
Y3853D02*
Y3678D01*
Y4103D02*
Y4003D01*
X2008Y678D02*
Y627D01*
X1903*
Y623*
X2008Y1007D02*
Y953D01*
Y1053D02*
Y1007D01*
Y1303D02*
Y1252D01*
Y1353D02*
Y1303D01*
Y1603D02*
Y1553D01*
Y1653D02*
Y1603D01*
X2033Y2703D02*
X1958D01*
Y3028*
X2033Y2703D02*
X2223D01*
X2033Y2903D02*
Y3058D01*
X2031*
X2083Y3303D02*
Y3058D01*
X2031*
X2083Y4103D02*
Y4003D01*
X2133Y553D02*
X2433D01*
X2133Y853D02*
X2433D01*
X2133Y1153D02*
X2433D01*
X2133Y1453D02*
X2433D01*
X2133Y1753D02*
X2433D01*
X2133Y2203D02*
X2153D01*
X2453Y2503*
Y2603*
X2133Y2303D02*
X2153D01*
X2353Y2503*
Y2603*
X2133Y2403D02*
X2153D01*
X2253Y2503*
Y2603*
X2133Y2503D02*
X2153D01*
Y2603*
X2183Y3303D02*
Y3058D01*
X2223*
X2183Y4103D02*
Y4003D01*
X2203Y923D02*
X2208D01*
Y932*
X2283Y1007*
X2308*
X2203Y1223D02*
X2208D01*
Y1228*
X2283Y1303*
X2308*
X2203Y1523D02*
X2208D01*
Y1528*
X2283Y1603*
X2308*
X2203Y1823D02*
X2208D01*
Y1928*
X2258*
X2308Y1878*
Y1853*
X2223Y2903D02*
Y3058D01*
X2283Y3403D02*
Y3303D01*
Y4103D02*
Y4003D01*
X2308Y678D02*
Y627D01*
X2203*
Y623*
X2308Y1007D02*
Y953D01*
Y1053D02*
Y1007D01*
Y1303D02*
Y1252D01*
Y1353D02*
Y1303D01*
Y1603D02*
Y1553D01*
Y1653D02*
Y1603D01*
X2383Y3303D02*
Y3403D01*
Y4103D02*
Y4003D01*
X2473Y353D02*
X2483D01*
X2583Y253*
Y228*
X2403*
X2203Y428*
X1053*
X903Y278*
X803*
X733Y348*
Y2053*
X1308Y2628*
X1358*
X1483Y2753*
Y3303*
X2473Y353D02*
X2483D01*
X2583Y253*
Y228*
X2783*
X2833Y178*
X2933*
X2483Y4103D02*
Y4003D01*
X2503Y623D02*
Y627D01*
X2508*
Y1232*
X2503Y923D02*
X2508D01*
Y1232*
X2503Y1223D02*
Y1523D01*
Y1823*
Y1832*
X2308Y2028*
X2108*
X2058Y2078*
Y2603*
X2508Y1232D02*
X2503D01*
Y1223*
X2553Y2603D02*
Y2503D01*
X2153Y2103*
X2133*
X2583Y4003D02*
Y4122D01*
X2503Y4203*
X1793*
X1673Y4082*
X613*
X583Y4053*
Y3778*
X608Y3753*
X1533*
X1583Y3703*
Y3678*
X2583Y4003D02*
Y4122D01*
X2503Y4203*
X2033*
X2677Y355D02*
X2633D01*
Y363*
X2518Y477*
X973*
X858Y363*
Y355*
X852*
X2683Y4003D02*
Y4403D01*
X3083*
X2683Y4003D02*
X2703D01*
X3063Y3643*
Y3553*
X2713Y3203*
X2442*
X2393Y3153*
Y2743*
X2453Y2683*
X2593*
X2633Y2643*
Y2483*
X2342Y2192*
Y2123*
X2643Y1823*
Y502*
X2693Y453*
X2933*
X3013Y373*
Y163*
X2953Y103*
X2103*
X1883Y323*
Y353*
X1933*
X2683Y4003D02*
Y3943D01*
X2593Y3853*
X1983*
X3083Y4303D02*
Y4253D01*
X2983Y4153*
Y4143*
X0Y0D02*
M02*
