%FSLAX23Y23*%
%MOIN*%
G04 EasyPC Gerber Version 17.0 Build 3379 *
%ADD24C,0.00100*%
%ADD26C,0.00200*%
%ADD23C,0.00300*%
%ADD21C,0.00500*%
%ADD25C,0.00600*%
X0Y0D02*
D02*
D21*
X694Y903D02*
X700Y900D01*
X709*
X716Y903*
X719Y909*
Y912*
X716Y919*
X709Y922*
X694*
Y937*
X719*
X716Y760D02*
Y797D01*
X701Y772*
X726*
X730Y357D02*
X736Y354D01*
X742*
X749Y357*
X752Y363*
X749Y369*
X742Y373*
X736*
X742D02*
X749Y376D01*
X752Y382*
X749Y388*
X742Y391*
X736*
X730Y388*
X762Y1589D02*
Y1353D01*
X856*
Y1589*
X762*
X1010Y1386D02*
X990Y1366D01*
X988Y1360*
X990Y1353*
X999Y1344*
X1005Y1342*
X1012Y1344*
X1032Y1364*
X1023Y1320D02*
X1032Y1311D01*
X1027Y1315D02*
X1054Y1342D01*
X1045*
X1672Y711D02*
X1684D01*
X1678D02*
Y748D01*
X1672Y742*
X1694Y937D02*
X1700Y934D01*
X1706*
X1713Y937*
X1716Y943*
Y962*
X1713Y968*
X1706Y971*
X1700*
X1694Y968*
X1691Y962*
Y943*
X1694Y937*
X1713Y968*
X1726Y363D02*
X1701D01*
X1723Y385*
X1726Y391*
X1723Y397*
X1716Y400*
X1707*
X1701Y397*
D02*
D23*
X470Y1920D02*
X493D01*
Y1907*
X491Y1903*
X487Y1901*
X483Y1903*
X482Y1907*
Y1920*
X493Y1890D02*
X470Y1888D01*
X482Y1880*
X470Y1873*
X493Y1871*
X470Y1860D02*
X493D01*
Y1847*
X491Y1843*
X487Y1841*
X483Y1843*
X482Y1847*
Y1860*
Y1847D02*
X470Y1841D01*
X519Y1569D02*
X491D01*
X485Y1566*
X482Y1560*
Y1548*
X485Y1541*
X491Y1538*
X519*
X485Y1516D02*
X482Y1510D01*
Y1504*
X485Y1498*
X491Y1494*
X498Y1498*
X501Y1504*
Y1510*
Y1504D02*
X504Y1498D01*
X510Y1494*
X516Y1498*
X519Y1504*
Y1510*
X516Y1516*
X713Y1725D02*
Y1747D01*
X726*
X730Y1745*
X732Y1742*
X730Y1738*
X726Y1736*
X713*
X726D02*
X732Y1725D01*
X743Y1730D02*
X745Y1734D01*
X748Y1736*
X752*
X756Y1734*
X758Y1730*
X756Y1727*
X752Y1725*
X748*
X745Y1727*
X743Y1730*
Y1736*
X745Y1742*
X748Y1745*
X752Y1747*
X766Y1215D02*
X788D01*
Y1202*
X786Y1198*
X783Y1196*
X779Y1198*
X777Y1202*
Y1215*
Y1202D02*
X766Y1196D01*
Y1181D02*
Y1174D01*
Y1178D02*
X788D01*
X784Y1181*
X768Y1153D02*
X766Y1149D01*
Y1146*
X768Y1142*
X771Y1140*
X783*
X786Y1142*
X788Y1146*
Y1149*
X786Y1153*
X783Y1155*
X771*
X768Y1153*
X786Y1142*
X766Y101D02*
X771D01*
X769D02*
Y116D01*
X766Y113*
X785Y102D02*
X788Y101D01*
X790*
X793Y102*
X794Y104*
Y112*
X793Y114*
X790Y116*
X788*
X785Y114*
X784Y112*
Y104*
X785Y102*
X793Y114*
X786Y195D02*
X791D01*
X789D02*
Y210D01*
X786Y208*
X789Y298D02*
X812D01*
Y285*
X810Y281*
X806Y279*
X802Y281*
X801Y285*
Y298*
Y285D02*
X789Y279D01*
Y264D02*
Y257D01*
Y260D02*
X812D01*
X808Y264*
X789Y436D02*
X812D01*
Y422*
X810Y419*
X806Y417*
X802Y419*
X801Y422*
Y436*
Y422D02*
X789Y417D01*
Y391D02*
Y406D01*
X802Y392*
X806Y391*
X810Y392*
X812Y396*
Y402*
X810Y406*
X789Y585D02*
X812D01*
Y572*
X810Y568*
X806Y566*
X802Y568*
X801Y572*
Y585*
Y572D02*
X789Y566D01*
X791Y553D02*
X789Y550D01*
Y546*
X791Y542*
X795Y540*
X799Y542*
X801Y546*
Y550*
Y546D02*
X802Y542D01*
X806Y540*
X810Y542*
X812Y546*
Y550*
X810Y553*
X789Y735D02*
X812D01*
Y722*
X810Y718*
X806Y716*
X802Y718*
X801Y722*
Y735*
Y722D02*
X789Y716D01*
Y695D02*
X812D01*
X797Y705*
Y690*
X789Y888D02*
X812D01*
Y875*
X810Y871*
X806Y870*
X802Y871*
X801Y875*
Y888*
Y875D02*
X789Y870D01*
X791Y858D02*
X789Y855D01*
Y849*
X791Y845*
X795Y843*
X797*
X801Y845*
X802Y849*
Y858*
X812*
Y843*
X784Y1649D02*
Y1626D01*
X802*
X829D02*
X814D01*
X827Y1639*
X829Y1643*
X827Y1647*
X823Y1649*
X817*
X814Y1647*
X849Y1637D02*
X853D01*
X857Y1639*
X859Y1643*
X857Y1647*
X853Y1649*
X849*
X846Y1647*
X844Y1643*
X846Y1639*
X849Y1637*
X846Y1636*
X844Y1632*
X846Y1628*
X849Y1626*
X853*
X857Y1628*
X859Y1632*
X857Y1636*
X853Y1637*
X836Y1212D02*
X834Y1214D01*
X833Y1218*
Y1223*
X834Y1227*
X836Y1229*
X840Y1231*
X848*
X851Y1229*
X853Y1227*
X855Y1223*
Y1218*
X853Y1214*
X851Y1212*
X833Y1197D02*
Y1190D01*
Y1193D02*
X855D01*
X851Y1197*
X864Y1522D02*
X887Y1503D01*
Y1522D02*
X864Y1503D01*
Y1483D02*
X887D01*
Y1492D02*
Y1473D01*
X864Y1462D02*
X887Y1453D01*
X864Y1443*
X873Y1458D02*
Y1447D01*
X887Y1432D02*
X864D01*
Y1413*
Y1398D02*
Y1391D01*
Y1395D02*
X887D01*
X883Y1398*
X865Y101D02*
X870D01*
X867D02*
Y116D01*
X865Y113*
X885Y101D02*
X890D01*
X887D02*
Y116D01*
X885Y113*
X892Y195D02*
X882D01*
X891Y204*
X892Y206*
X891Y209*
X888Y210*
X885*
X882Y209*
X907Y1216D02*
X905Y1218D01*
X903Y1222*
Y1227*
X905Y1231*
X907Y1233*
X911Y1235*
X918*
X922Y1233*
X924Y1231*
X926Y1227*
Y1222*
X924Y1218*
X922Y1216*
X903Y1190D02*
Y1205D01*
X917Y1192*
X920Y1190*
X924Y1192*
X926Y1195*
Y1201*
X924Y1205*
X906Y365D02*
Y343D01*
X924*
X939D02*
X947D01*
X943D02*
Y365D01*
X939Y362*
X906Y523D02*
Y500D01*
X924*
X951D02*
X936D01*
X949Y513*
X951Y517*
X949Y521*
X945Y523*
X939*
X936Y521*
X906Y668D02*
Y646D01*
X924*
X938Y648D02*
X941Y646D01*
X945*
X949Y648*
X951Y652*
X949Y655*
X945Y657*
X941*
X945D02*
X949Y659D01*
X951Y663*
X949Y667*
X945Y668*
X941*
X938Y667*
X906Y818D02*
Y796D01*
X924*
X945D02*
Y818D01*
X936Y803*
X951*
X918Y1389D02*
X922Y1386D01*
X920Y1387D02*
X930Y1398D01*
X927*
X932Y1375D02*
X936Y1372D01*
X934Y1373D02*
X944Y1384D01*
X941*
X925Y1723D02*
X941Y1739D01*
X951Y1730*
X952Y1726*
X951Y1722*
X947Y1720*
X943Y1722*
X933Y1731*
X943Y1722D02*
X939Y1710D01*
X949Y1699D02*
X955Y1694D01*
X952Y1696D02*
X968Y1712D01*
X963*
X970Y1678D02*
X976Y1673D01*
X973Y1675D02*
X989Y1691D01*
X984*
X938Y1337D02*
X935Y1333D01*
X936Y1335D02*
X947Y1324D01*
Y1328*
X919Y1317D02*
X926Y1324D01*
X926Y1312*
X927Y1309*
X929Y1308*
X932Y1309*
X935Y1312*
X935Y1315*
X967Y101D02*
X972D01*
X970D02*
Y116D01*
X967Y113*
X995Y101D02*
X985D01*
X993Y109*
X995Y112*
X993Y114*
X991Y116*
X987*
X985Y114*
X971Y887D02*
Y865D01*
X990*
X1001Y867D02*
X1005Y865D01*
X1011*
X1014Y867*
X1016Y870*
Y872*
X1014Y876*
X1011Y878*
X1001*
Y887*
X1016*
X982Y196D02*
X984Y195D01*
X987*
X989Y196*
X990Y199*
X989Y201*
X987Y203*
X984*
X987D02*
X989Y204D01*
X990Y206*
X989Y209*
X987Y210*
X984*
X982Y209*
X992Y1790D02*
X1008Y1806D01*
X1018Y1797*
X1019Y1793*
X1018Y1789*
X1014Y1787*
X1010Y1789*
X1000Y1798*
X1010Y1789D02*
X1006Y1777D01*
X1016Y1766D02*
X1022Y1761D01*
X1019Y1763D02*
X1035Y1779D01*
X1029*
X1045Y1737D02*
X1035Y1748D01*
X1053*
X1057Y1749*
X1059Y1753*
X1057Y1757*
X1053Y1761*
X1049Y1762*
X1003Y746D02*
Y723D01*
X1021*
X1038D02*
X1042Y725D01*
X1046Y729*
X1048Y734*
Y740*
X1046Y744*
X1042Y746*
X1038*
X1035Y744*
X1033Y740*
X1035Y736*
X1038Y734*
X1042*
X1046Y736*
X1048Y740*
X1051Y668D02*
Y646D01*
X1070*
X1087Y657D02*
X1091D01*
X1094Y659*
X1096Y663*
X1094Y667*
X1091Y668*
X1087*
X1083Y667*
X1081Y663*
X1083Y659*
X1087Y657*
X1083Y655*
X1081Y652*
X1083Y648*
X1087Y646*
X1091*
X1094Y648*
X1096Y652*
X1094Y655*
X1091Y657*
X1055Y365D02*
Y343D01*
X1074*
X1085Y348D02*
X1087Y352D01*
X1091Y354*
X1095*
X1098Y352*
X1100Y348*
X1098Y345*
X1095Y343*
X1091*
X1087Y345*
X1085Y348*
Y354*
X1087Y360*
X1091Y363*
X1095Y365*
X1055Y972D02*
Y949D01*
X1074*
X1089D02*
X1097D01*
X1093D02*
Y972D01*
X1089Y968*
X1117Y951D02*
X1121Y949D01*
X1125*
X1128Y951*
X1130Y955*
Y966*
X1128Y970*
X1125Y972*
X1121*
X1117Y970*
X1115Y966*
Y955*
X1117Y951*
X1128Y970*
X1059Y519D02*
Y496D01*
X1078*
X1089D02*
X1104Y519D01*
X1089*
X1066Y101D02*
X1071D01*
X1068D02*
Y116D01*
X1066Y113*
X1084Y102D02*
X1087Y101D01*
X1089*
X1092Y102*
X1093Y104*
X1092Y107*
X1089Y108*
X1087*
X1089D02*
X1092Y109D01*
X1093Y112*
X1092Y114*
X1089Y116*
X1087*
X1084Y114*
X1089Y195D02*
Y210D01*
X1083Y200*
X1093*
X1122Y889D02*
Y866D01*
X1141*
X1156D02*
X1163D01*
X1160D02*
Y889D01*
X1156Y885*
X1182Y868D02*
X1186Y866D01*
X1192*
X1195Y868*
X1197Y872*
Y874*
X1195Y878*
X1192Y880*
X1182*
Y889*
X1197*
X1149Y1693D02*
X1166Y1675D01*
X1144Y1680D02*
X1171Y1688D01*
X1162Y1697D02*
X1153Y1671D01*
X1158Y1657D02*
X1162Y1653D01*
X1160Y1655D02*
X1171Y1666D01*
X1167*
X1168Y101D02*
X1173D01*
X1171D02*
Y116D01*
X1168Y113*
X1192Y101D02*
Y116D01*
X1186Y106*
X1196*
X1161Y1052D02*
X1168Y1059D01*
X1168Y1047*
X1169Y1044*
X1172Y1043*
X1174Y1044*
X1177Y1047*
X1178Y1049*
X1147Y1038D02*
X1154Y1045D01*
X1154Y1032*
X1155Y1030*
X1158Y1029*
X1160Y1030*
X1163Y1032*
X1164Y1035*
X1181Y196D02*
X1184Y195D01*
X1188*
X1190Y196*
X1191Y199*
Y200*
X1190Y203*
X1188Y204*
X1181*
Y210*
X1191*
X1209Y365D02*
Y343D01*
X1228*
X1243D02*
X1250D01*
X1246D02*
Y365D01*
X1243Y362*
X1273Y343D02*
X1280D01*
X1276D02*
Y365D01*
X1273Y362*
X1209Y519D02*
Y496D01*
X1228*
X1243D02*
X1250D01*
X1246D02*
Y519D01*
X1243Y515*
X1284Y496D02*
X1269D01*
X1282Y509*
X1284Y513*
X1282Y517*
X1278Y519*
X1273*
X1269Y517*
X1209Y668D02*
Y646D01*
X1228*
X1243D02*
X1250D01*
X1246D02*
Y668D01*
X1243Y665*
X1271Y648D02*
X1274Y646D01*
X1278*
X1282Y648*
X1284Y652*
X1282Y655*
X1278Y657*
X1274*
X1278D02*
X1282Y659D01*
X1284Y663*
X1282Y667*
X1278Y668*
X1274*
X1271Y667*
X1209Y818D02*
Y796D01*
X1228*
X1243D02*
X1250D01*
X1246D02*
Y818D01*
X1243Y814*
X1278Y796D02*
Y818D01*
X1269Y803*
X1284*
X1266Y1057D02*
X1259Y1064D01*
X1271Y1064*
X1274Y1065*
X1275Y1068*
X1274Y1070*
X1271Y1073*
X1268Y1074*
X1275Y1050D02*
X1276Y1047D01*
X1277Y1046*
X1280Y1045*
X1283Y1046*
X1283Y1048*
X1283Y1051*
X1281Y1053*
X1283Y1051D02*
X1285Y1050D01*
X1288Y1051*
X1289Y1054*
X1288Y1056*
X1286Y1058*
X1283Y1059*
X1258Y1657D02*
X1269Y1646D01*
X1266Y1658*
X1259Y1651*
X1244Y1643D02*
X1255Y1632D01*
X1252Y1644*
X1245Y1637*
X1266Y101D02*
X1271D01*
X1269D02*
Y116D01*
X1266Y113*
X1284Y102D02*
X1286Y101D01*
X1290*
X1293Y102*
X1294Y104*
Y106*
X1293Y108*
X1290Y109*
X1284*
Y116*
X1294*
X1284Y199D02*
X1285Y201D01*
X1287Y203*
X1290*
X1292Y201*
X1294Y199*
X1292Y196*
X1290Y195*
X1287*
X1285Y196*
X1284Y199*
Y203*
X1285Y206*
X1287Y209*
X1290Y210*
X1321Y1047D02*
X1319Y1049D01*
X1317Y1052*
Y1058*
X1319Y1062*
X1321Y1064*
X1324Y1065*
X1332*
X1336Y1064*
X1337Y1062*
X1339Y1058*
Y1052*
X1337Y1049*
X1336Y1047*
X1319Y1034D02*
X1317Y1030D01*
Y1026*
X1319Y1022*
X1322Y1020*
X1326Y1022*
X1328Y1026*
Y1030*
Y1026D02*
X1330Y1022D01*
X1334Y1020*
X1337Y1022*
X1339Y1026*
Y1030*
X1337Y1034*
X1335Y1947D02*
Y1928D01*
X1327Y1937*
X1319Y1928*
Y1947*
X1304D02*
Y1934D01*
Y1929D02*
X1272Y1936*
X1275Y1934D01*
X1280*
X1283Y1936*
X1285Y1939*
Y1942*
X1283Y1945*
X1280Y1947*
X1275*
X1272Y1945*
X1260Y1947D02*
Y1934D01*
Y1939D02*
X1258Y1936D01*
X1255Y1934*
X1252*
X1249Y1936*
X1235Y1942D02*
X1233Y1945D01*
X1230Y1947*
X1227*
X1224Y1945*
X1222Y1942*
Y1939*
X1224Y1936*
X1227Y1934*
X1230*
X1233Y1936*
X1235Y1939*
Y1942*
X1210Y1928D02*
Y1942D01*
X1208Y1945*
X1205Y1947*
X1199*
X1196Y1945*
X1194Y1942*
Y1928*
X1185Y1942D02*
X1183Y1945D01*
X1180Y1947*
X1174*
X1171Y1945*
X1169Y1942*
X1171Y1939*
X1174Y1937*
X1180*
X1183Y1936*
X1185Y1933*
X1183Y1929*
X1180Y1928*
X1174*
X1171Y1929*
X1169Y1933*
X1149Y1937D02*
X1146Y1939D01*
X1144Y1942*
X1146Y1945*
X1149Y1947*
X1160*
Y1928*
X1149*
X1146Y1929*
X1144Y1933*
X1146Y1936*
X1149Y1937*
X1160*
X1343Y365D02*
Y343D01*
X1361*
X1376D02*
X1384D01*
X1380D02*
Y365D01*
X1376Y362*
X1403Y348D02*
X1405Y352D01*
X1408Y354*
X1412*
X1416Y352*
X1418Y348*
X1416Y345*
X1412Y343*
X1408*
X1405Y345*
X1403Y348*
Y354*
X1405Y360*
X1408Y363*
X1412Y365*
X1358Y531D02*
Y508D01*
X1377*
X1392D02*
X1400D01*
X1396D02*
Y531D01*
X1392Y527*
X1418Y508D02*
X1433Y531D01*
X1418*
X1358Y676D02*
Y654D01*
X1377*
X1392D02*
X1400D01*
X1396D02*
Y676D01*
X1392Y673*
X1424Y665D02*
X1428D01*
X1432Y667*
X1433Y671*
X1432Y674*
X1428Y676*
X1424*
X1420Y674*
X1418Y671*
X1420Y667*
X1424Y665*
X1420Y663*
X1418Y659*
X1420Y656*
X1424Y654*
X1428*
X1432Y656*
X1433Y659*
X1432Y663*
X1428Y665*
X1358Y830D02*
Y807D01*
X1377*
X1392D02*
X1400D01*
X1396D02*
Y830D01*
X1392Y826*
X1424Y807D02*
X1428Y809D01*
X1432Y813*
X1433Y819*
Y824*
X1432Y828*
X1428Y830*
X1424*
X1420Y828*
X1418Y824*
X1420Y820*
X1424Y819*
X1428*
X1432Y820*
X1433Y824*
X1365Y101D02*
X1370D01*
X1367D02*
Y116D01*
X1365Y113*
X1382Y104D02*
X1384Y107D01*
X1386Y108*
X1389*
X1391Y107*
X1392Y104*
X1391Y102*
X1389Y101*
X1386*
X1384Y102*
X1382Y104*
Y108*
X1384Y112*
X1386Y114*
X1389Y116*
X1362Y983D02*
Y961D01*
X1381*
X1407D02*
X1392D01*
X1405Y974*
X1407Y978*
X1405Y981*
X1402Y983*
X1396*
X1392Y981*
X1424Y963D02*
X1428Y961D01*
X1432*
X1435Y963*
X1437Y966*
Y978*
X1435Y981*
X1432Y983*
X1428*
X1424Y981*
X1422Y978*
Y966*
X1424Y963*
X1435Y981*
X1382Y195D02*
X1392Y210D01*
X1382*
X1463Y101D02*
X1468D01*
X1466D02*
Y116D01*
X1463Y113*
X1481Y101D02*
X1491Y116D01*
X1481*
X1484Y203D02*
X1487D01*
X1489Y204*
X1490Y206*
X1489Y209*
X1487Y210*
X1484*
X1482Y209*
X1480Y206*
X1482Y204*
X1484Y203*
X1482Y201*
X1480Y199*
X1482Y196*
X1484Y195*
X1487*
X1489Y196*
X1490Y199*
X1489Y201*
X1487Y203*
X1480Y365D02*
Y343D01*
X1499*
X1525D02*
X1510D01*
X1524Y356*
X1525Y360*
X1524Y363*
X1520Y365*
X1514*
X1510Y363*
X1544Y343D02*
X1552D01*
X1548D02*
Y365D01*
X1544Y362*
X1505Y1340D02*
X1505Y1337D01*
X1507Y1335*
X1510Y1334*
X1513Y1335*
X1513Y1338*
X1513Y1341*
X1511Y1342*
X1513Y1341D02*
X1515Y1340D01*
X1518Y1341*
X1519Y1343*
X1518Y1346*
X1516Y1348*
X1513Y1349*
X1519Y1326D02*
X1520Y1323D01*
X1521Y1321*
X1524Y1320*
X1527Y1321*
X1528Y1324*
X1527Y1327*
X1525Y1328*
X1527Y1327D02*
X1529Y1326D01*
X1532Y1327*
X1533Y1329*
X1532Y1332*
X1530Y1334*
X1528Y1334*
X1504Y531D02*
Y508D01*
X1523*
X1549D02*
X1534D01*
X1547Y521*
X1549Y525*
X1547Y529*
X1543Y531*
X1538*
X1534Y529*
X1579Y508D02*
X1564D01*
X1577Y521*
X1579Y525*
X1577Y529*
X1573Y531*
X1568*
X1564Y529*
X1504Y680D02*
Y658D01*
X1523*
X1549D02*
X1534D01*
X1547Y671*
X1549Y675*
X1547Y678*
X1543Y680*
X1538*
X1534Y678*
X1566Y660D02*
X1570Y658D01*
X1573*
X1577Y660*
X1579Y663*
X1577Y667*
X1573Y669*
X1570*
X1573D02*
X1577Y671D01*
X1579Y675*
X1577Y678*
X1573Y680*
X1570*
X1566Y678*
X1504Y834D02*
Y811D01*
X1523*
X1549D02*
X1534D01*
X1547Y824*
X1549Y828*
X1547Y832*
X1543Y834*
X1538*
X1534Y832*
X1573Y811D02*
Y834D01*
X1564Y819*
X1579*
X1504Y983D02*
Y961D01*
X1523*
X1549D02*
X1534D01*
X1547Y974*
X1549Y978*
X1547Y981*
X1543Y983*
X1538*
X1534Y981*
X1564Y963D02*
X1568Y961D01*
X1573*
X1577Y963*
X1579Y966*
Y968*
X1577Y972*
X1573Y974*
X1564*
Y983*
X1579*
X1546Y1400D02*
X1543Y1399D01*
X1542Y1397*
X1541Y1394*
X1542Y1392*
X1544Y1391*
X1547Y1392*
X1549Y1393*
X1547Y1392D02*
X1546Y1389D01*
X1547Y1386*
X1550Y1385*
X1552Y1386*
X1554Y1388*
X1555Y1391*
X1528Y1383D02*
X1538Y1372D01*
X1536Y1384*
X1528Y1377*
X1570Y105D02*
X1575D01*
X1572D02*
Y120D01*
X1570Y117*
X1591Y112D02*
X1593D01*
X1596Y113*
X1597Y116*
X1596Y118*
X1593Y120*
X1591*
X1588Y118*
X1587Y116*
X1588Y113*
X1591Y112*
X1588Y111*
X1587Y108*
X1588Y106*
X1591Y105*
X1593*
X1596Y106*
X1597Y108*
X1596Y111*
X1593Y112*
X1587Y195D02*
X1589Y196D01*
X1592Y199*
X1593Y203*
Y206*
X1592Y209*
X1589Y210*
X1587*
X1584Y209*
X1583Y206*
X1584Y204*
X1587Y203*
X1589*
X1592Y204*
X1593Y206*
X1666Y1707D02*
Y1729D01*
X1647*
X1621D02*
X1636D01*
X1622Y1716*
X1621Y1712*
X1622Y1709*
X1626Y1707*
X1632*
X1636Y1709*
X1600Y1729D02*
X1596Y1727D01*
X1592Y1724*
X1591Y1718*
Y1712*
X1592Y1709*
X1596Y1707*
X1600*
X1604Y1709*
X1606Y1712*
X1604Y1716*
X1600Y1718*
X1596*
X1592Y1716*
X1591Y1712*
X1664Y1270D02*
X1641D01*
Y1283*
X1643Y1287*
X1647Y1289*
X1651Y1287*
X1653Y1283*
Y1270*
Y1283D02*
X1664Y1289D01*
Y1306D02*
X1662Y1310D01*
X1658Y1313*
X1653Y1315*
X1647*
X1643Y1313*
X1641Y1310*
Y1306*
X1643Y1302*
X1647Y1300*
X1651Y1302*
X1653Y1306*
Y1310*
X1651Y1313*
X1647Y1315*
X1687Y1569D02*
X1665D01*
Y1583*
X1667Y1586*
X1671Y1588*
X1674Y1586*
X1676Y1583*
Y1569*
Y1583D02*
X1687Y1588D01*
Y1599D02*
X1665Y1614D01*
Y1599*
X1823Y1558D02*
X1795D01*
X1788Y1554*
X1785Y1548*
Y1536*
X1788Y1529*
X1795Y1526*
X1823*
X1785Y1483D02*
Y1508D01*
X1807Y1486*
X1813Y1483*
X1820Y1486*
X1823Y1492*
Y1501*
X1820Y1508*
X1958Y1854D02*
Y1860D01*
X1959*
X1963Y1858*
X1965Y1856*
X1967Y1852*
Y1849*
X1965Y1845*
X1963Y1843*
X1959Y1841*
X1952*
X1948Y1843*
X1946Y1845*
X1944Y1849*
Y1852*
X1946Y1856*
X1948Y1858*
X1952Y1860*
X1967Y1871D02*
X1944D01*
X1967Y1890*
X1944*
X1967Y1901D02*
X1944D01*
Y1912*
X1946Y1916*
X1948Y1918*
X1952Y1920*
X1959*
X1963Y1918*
X1965Y1916*
X1967Y1912*
Y1901*
D02*
D24*
X955Y1457D02*
X945Y1446D01*
X952Y1439*
X962Y1450*
X955Y1457*
G36*
X945Y1446*
X952Y1439*
X962Y1450*
X955Y1457*
G37*
X1108Y1113D02*
X1101Y1106D01*
X1111Y1095*
X1118Y1102*
X1108Y1113*
G36*
X1101Y1106*
X1111Y1095*
X1118Y1102*
X1108Y1113*
G37*
X1378Y1561D02*
X1385Y1568D01*
X1395Y1558*
X1388Y1551*
X1378Y1561*
G36*
X1385Y1568*
X1395Y1558*
X1388Y1551*
X1378Y1561*
G37*
X1462Y1217D02*
X1452Y1207D01*
X1445Y1214*
X1455Y1224*
X1462Y1217*
G36*
X1452Y1207*
X1445Y1214*
X1455Y1224*
X1462Y1217*
G37*
X1625Y1808D02*
X1617Y1816D01*
X1625Y1824*
X1635Y1814D02*
X1647D01*
X1638Y1808D02*
X1644Y1821D01*
X1638D02*
X1644Y1808D01*
X1656D02*
X1664Y1816D01*
X1656Y1824*
D02*
D25*
X461Y1581D02*
Y1345D01*
X697*
Y1581*
X461*
X708Y1674D02*
Y1664D01*
X715Y1276D02*
Y1265D01*
X763Y1664D02*
Y1674D01*
X770Y1265D02*
Y1276D01*
X810Y1696D02*
Y1721D01*
X823Y309D02*
Y299D01*
Y459D02*
Y449D01*
Y609D02*
Y599D01*
Y759D02*
Y749D01*
Y909D02*
Y899D01*
X845Y1708D02*
X795D01*
X866Y1214D02*
G75*
G03Y1220J3D01*
G01*
G75*
G03Y1214J-3*
G01*
X878Y299D02*
Y309D01*
Y449D02*
Y459D01*
Y599D02*
Y609D01*
Y749D02*
Y759D01*
Y899D02*
Y909D01*
X936Y1214D02*
G75*
G03Y1220J3D01*
G01*
G75*
G03Y1214J-3*
G01*
X943Y314D02*
X968D01*
X943Y464D02*
X968D01*
X943Y614D02*
X968D01*
X943Y764D02*
X968D01*
X943Y914D02*
X968D01*
X956Y279D02*
Y329D01*
Y429D02*
Y479D01*
Y579D02*
Y629D01*
Y729D02*
Y779D01*
Y879D02*
Y929D01*
X959Y1339D02*
X944Y1354D01*
X959Y1369*
X982Y1598D02*
X990Y1591D01*
X1027Y1663D02*
X1035Y1656D01*
X1029Y1630D02*
X1021Y1637D01*
X1074Y1695D02*
X1066Y1702D01*
X1090Y1866D02*
Y1839D01*
X1093Y314D02*
X1118D01*
X1093Y464D02*
X1118D01*
X1093Y614D02*
X1118D01*
X1093Y764D02*
X1118D01*
X1093Y914D02*
X1118D01*
X1106Y279D02*
Y329D01*
Y429D02*
Y479D01*
Y579D02*
Y629D01*
Y729D02*
Y779D01*
Y879D02*
Y929D01*
X1154Y1774D02*
X1166D01*
X1210Y1600D02*
X1241D01*
X1211Y1088D02*
X1226Y1073D01*
X1241Y1088*
Y1620D02*
X1226Y1635D01*
X1211Y1620*
X1243Y314D02*
X1268D01*
X1243Y464D02*
X1268D01*
X1243Y614D02*
X1268D01*
X1243Y764D02*
X1268D01*
X1243Y914D02*
X1268D01*
X1252Y1994D02*
X1227Y2044D01*
X1202Y1994*
X1256Y279D02*
Y329D01*
Y429D02*
Y479D01*
Y579D02*
Y629D01*
Y729D02*
Y779D01*
Y879D02*
Y929D01*
X1313Y1774D02*
X1325D01*
X1345Y983D02*
G75*
G03X1351I3D01*
G01*
G75*
G03X1345I-3*
G01*
X1389Y1839D02*
Y1866D01*
Y1946D02*
Y1994D01*
X1090*
Y1946*
X1393Y309D02*
X1418D01*
X1393Y464D02*
X1418D01*
X1393Y614D02*
X1418D01*
X1393Y764D02*
X1418D01*
X1393Y914D02*
X1418D01*
X1406Y274D02*
Y324D01*
Y429D02*
Y479D01*
Y579D02*
Y629D01*
Y729D02*
Y779D01*
Y879D02*
Y929D01*
X1492Y1339D02*
X1507Y1354D01*
X1492Y1369*
X1543Y314D02*
X1568D01*
X1543Y464D02*
X1568D01*
X1543Y614D02*
X1568D01*
X1543Y764D02*
X1568D01*
X1543Y914D02*
X1568D01*
X1556Y279D02*
Y329D01*
Y429D02*
Y479D01*
Y579D02*
Y629D01*
Y729D02*
Y779D01*
Y879D02*
Y929D01*
X1601Y1652D02*
X1651D01*
X1636Y1665D02*
Y1640D01*
X1673Y1674D02*
Y1664D01*
X1675Y1315D02*
Y1304D01*
X1728Y1664D02*
Y1674D01*
X1730Y1304D02*
Y1315D01*
X1761Y1581D02*
Y1345D01*
X1997*
Y1581*
X1761*
D02*
D26*
X810Y1708D02*
X830Y1721D01*
Y1696*
X810Y1708*
G36*
X830Y1721*
Y1696*
X810Y1708*
G37*
X956Y314D02*
X968Y294D01*
X943*
X956Y314*
G36*
X968Y294*
X943*
X956Y314*
G37*
Y464D02*
X968Y444D01*
X943*
X956Y464*
G36*
X968Y444*
X943*
X956Y464*
G37*
Y614D02*
X968Y594D01*
X943*
X956Y614*
G36*
X968Y594*
X943*
X956Y614*
G37*
Y764D02*
X968Y744D01*
X943*
X956Y764*
G36*
X968Y744*
X943*
X956Y764*
G37*
Y914D02*
X968Y894D01*
X943*
X956Y914*
G36*
X968Y894*
X943*
X956Y914*
G37*
X1106Y314D02*
X1118Y294D01*
X1093*
X1106Y314*
G36*
X1118Y294*
X1093*
X1106Y314*
G37*
Y464D02*
X1118Y444D01*
X1093*
X1106Y464*
G36*
X1118Y444*
X1093*
X1106Y464*
G37*
Y614D02*
X1118Y594D01*
X1093*
X1106Y614*
G36*
X1118Y594*
X1093*
X1106Y614*
G37*
Y764D02*
X1118Y744D01*
X1093*
X1106Y764*
G36*
X1118Y744*
X1093*
X1106Y764*
G37*
Y914D02*
X1118Y894D01*
X1093*
X1106Y914*
G36*
X1118Y894*
X1093*
X1106Y914*
G37*
X1256Y314D02*
X1268Y294D01*
X1243*
X1256Y314*
G36*
X1268Y294*
X1243*
X1256Y314*
G37*
Y464D02*
X1268Y444D01*
X1243*
X1256Y464*
G36*
X1268Y444*
X1243*
X1256Y464*
G37*
Y614D02*
X1268Y594D01*
X1243*
X1256Y614*
G36*
X1268Y594*
X1243*
X1256Y614*
G37*
Y764D02*
X1268Y744D01*
X1243*
X1256Y764*
G36*
X1268Y744*
X1243*
X1256Y764*
G37*
Y914D02*
X1268Y894D01*
X1243*
X1256Y914*
G36*
X1268Y894*
X1243*
X1256Y914*
G37*
X1406Y309D02*
X1418Y289D01*
X1393*
X1406Y309*
G36*
X1418Y289*
X1393*
X1406Y309*
G37*
Y464D02*
X1418Y444D01*
X1393*
X1406Y464*
G36*
X1418Y444*
X1393*
X1406Y464*
G37*
Y614D02*
X1418Y594D01*
X1393*
X1406Y614*
G36*
X1418Y594*
X1393*
X1406Y614*
G37*
Y764D02*
X1418Y744D01*
X1393*
X1406Y764*
G36*
X1418Y744*
X1393*
X1406Y764*
G37*
Y914D02*
X1418Y894D01*
X1393*
X1406Y914*
G36*
X1418Y894*
X1393*
X1406Y914*
G37*
X1556Y314D02*
X1568Y294D01*
X1543*
X1556Y314*
G36*
X1568Y294*
X1543*
X1556Y314*
G37*
Y464D02*
X1568Y444D01*
X1543*
X1556Y464*
G36*
X1568Y444*
X1543*
X1556Y464*
G37*
Y614D02*
X1568Y594D01*
X1543*
X1556Y614*
G36*
X1568Y594*
X1543*
X1556Y614*
G37*
Y764D02*
X1568Y744D01*
X1543*
X1556Y764*
G36*
X1568Y744*
X1543*
X1556Y764*
G37*
Y914D02*
X1568Y894D01*
X1543*
X1556Y914*
G36*
X1568Y894*
X1543*
X1556Y914*
G37*
X1636Y1652D02*
X1616Y1640D01*
Y1665*
X1636Y1652*
G36*
X1616Y1640*
Y1665*
X1636Y1652*
G37*
X0Y0D02*
M02*
