%FSLAX23Y23*%
%MOIN*%
G04 EasyPC Gerber Version 17.0 Build 3379 *
%ADD70C,0.00500*%
%ADD19C,0.10000*%
X0Y0D02*
D02*
D19*
X253Y2513D03*
X293Y1828D03*
X333Y2353D03*
X425Y1240D03*
X458Y2135D03*
X477Y2533D03*
X538Y1828D03*
Y2028D03*
X568Y2183D03*
X578Y2433D03*
Y2688D03*
X656Y665D03*
Y842D03*
X659Y3151D03*
X661Y2637D03*
X663Y2493D03*
X755Y2433D03*
Y2688D03*
X756Y2027D03*
X764Y2128D03*
X788Y3328D03*
X793Y2253D03*
X886Y2920D03*
X890Y2028D03*
X913Y665D03*
Y842D03*
X972Y2158D03*
X987Y1828D03*
X988Y1028D03*
Y1218D03*
Y1423D03*
Y1623D03*
X997Y2253D03*
X1038Y1678D03*
Y1978D03*
X1045Y3154D03*
X1103Y3013D03*
X1113Y1478D03*
Y1978D03*
X1129Y2910D03*
X1163Y1028D03*
Y1218D03*
Y1423D03*
Y1623D03*
Y1828D03*
X1178Y2438D03*
X1184Y2350D03*
X1227Y2259D03*
X1263Y1978D03*
X1268Y1278D03*
X1293Y2082D03*
X1338Y2244D03*
X1363Y1028D03*
Y1218D03*
Y1423D03*
Y1623D03*
Y1828D03*
X1385Y2729D03*
X1438Y1069D03*
Y1978D03*
X1563Y1028D03*
Y1218D03*
Y1423D03*
Y1623D03*
Y1828D03*
X1568Y498D03*
X1649Y2028D03*
Y2220D03*
X1657Y665D03*
Y842D03*
X1763Y1028D03*
Y1218D03*
Y1423D03*
Y1623D03*
Y1828D03*
X1788Y3328D03*
X1913Y665D03*
Y842D03*
X2028Y2672D03*
Y2755D03*
Y2834D03*
Y2913D03*
Y2995D03*
X2150Y1228D03*
X2283Y1813D03*
X2338Y2492D03*
D02*
D70*
X353Y2572D02*
Y2609D01*
Y2591D02*
X362D01*
X384Y2609*
X362Y2591D02*
X384Y2572D01*
X393Y1887D02*
Y1924D01*
Y1906D02*
X402D01*
X424Y1924*
X402Y1906D02*
X424Y1887D01*
X454Y2431D02*
X461Y2428D01*
X464Y2421*
X461Y2415*
X454Y2412*
X433*
Y2449*
X454*
X461Y2446*
X464Y2440*
X461Y2434*
X454Y2431*
X433*
X525Y1299D02*
Y1337D01*
Y1318D02*
X534D01*
X556Y1337*
X534Y1318D02*
X556Y1299D01*
X589Y2201D02*
X586Y2198D01*
X580Y2195*
X571*
X564Y2198*
X561Y2201*
X558Y2207*
Y2220*
X561Y2226*
X564Y2229*
X571Y2232*
X580*
X586Y2229*
X589Y2226*
X599Y2611D02*
X606Y2608D01*
X609Y2601*
X606Y2595*
X599Y2592*
X578*
Y2629*
X599*
X606Y2626*
X609Y2620*
X606Y2614*
X599Y2611*
X578*
X669Y1893D02*
X666Y1890D01*
X659Y1887*
X650*
X644Y1890*
X641Y1893*
X638Y1899*
Y1912*
X641Y1918*
X644Y1921*
X650Y1924*
X659*
X666Y1921*
X669Y1918*
Y2093D02*
X666Y2090D01*
X659Y2087*
X650*
X644Y2090*
X641Y2093*
X638Y2099*
Y2112*
X641Y2118*
X644Y2121*
X650Y2124*
X659*
X666Y2121*
X669Y2118*
X699Y2248D02*
X696Y2245D01*
X689Y2242*
X680*
X674Y2245*
X671Y2248*
X668Y2254*
Y2267*
X671Y2273*
X674Y2276*
X680Y2279*
X689*
X696Y2276*
X699Y2273*
X678Y2492D02*
Y2529D01*
X709*
X703Y2511D02*
X678D01*
Y2492D02*
X709D01*
X678Y2748D02*
Y2785D01*
X709*
X703Y2767D02*
X678D01*
Y2748D02*
X709D01*
X756Y724D02*
Y762D01*
X788*
X781Y743D02*
X756D01*
Y724D02*
X788D01*
X756Y901D02*
Y939D01*
X788*
X781Y920D02*
X756D01*
Y901D02*
X788D01*
X790Y3217D02*
X787Y3214D01*
X781Y3211*
X771*
X765Y3214*
X762Y3217*
X759Y3223*
Y3236*
X762Y3242*
X765Y3245*
X771Y3248*
X781*
X787Y3245*
X790Y3242*
X783Y2715D02*
X790Y2712D01*
X793Y2706*
X790Y2700*
X783Y2696*
X761*
Y2734*
X783*
X790Y2731*
X793Y2725*
X790Y2718*
X783Y2715*
X761*
X784Y2571D02*
X791Y2568D01*
X794Y2561*
X791Y2555*
X784Y2552*
X763*
Y2589*
X784*
X791Y2586*
X794Y2580*
X791Y2574*
X784Y2571*
X763*
X855Y2492D02*
Y2529D01*
X886*
X880Y2511D02*
X855D01*
Y2492D02*
X886D01*
X855Y2748D02*
Y2785D01*
X886*
X880Y2767D02*
X855D01*
Y2748D02*
X886D01*
X878Y2105D02*
X884Y2102D01*
X888Y2095*
X884Y2089*
X878Y2086*
X856*
Y2124*
X878*
X884Y2120*
X888Y2114*
X884Y2108*
X878Y2105*
X856*
X886Y2206D02*
X892Y2203D01*
X895Y2197*
X892Y2190*
X886Y2187*
X864*
Y2225*
X886*
X892Y2222*
X895Y2215*
X892Y2209*
X886Y2206*
X864*
X888Y3387D02*
Y3424D01*
Y3406D02*
X897D01*
X919Y3424*
X897Y3406D02*
X919Y3387D01*
X914Y2331D02*
X921Y2328D01*
X924Y2321*
X921Y2315*
X914Y2312*
X892*
Y2349*
X914*
X921Y2346*
X924Y2340*
X921Y2334*
X914Y2331*
X892*
X1008Y2998D02*
X1014Y2995D01*
X1017Y2989*
X1014Y2983*
X1008Y2980*
X986*
Y3017*
X1008*
X1014Y3014*
X1017Y3008*
X1014Y3002*
X1008Y2998*
X986*
X1012Y2106D02*
X1018Y2103D01*
X1021Y2097*
X1018Y2090*
X1012Y2087*
X990*
Y2125*
X1012*
X1018Y2122*
X1021Y2115*
X1018Y2109*
X1012Y2106*
X990*
X1013Y724D02*
Y762D01*
X1044*
X1038Y743D02*
X1013D01*
Y724D02*
X1044D01*
X1013Y901D02*
Y939D01*
X1044*
X1038Y920D02*
X1013D01*
Y901D02*
X1044D01*
X1094Y2236D02*
X1100Y2233D01*
X1103Y2227*
X1100Y2220*
X1094Y2217*
X1072*
Y2255*
X1094*
X1100Y2252*
X1103Y2245*
X1100Y2239*
X1094Y2236*
X1072*
X1109Y1906D02*
X1115Y1903D01*
X1118Y1896*
X1115Y1890*
X1109Y1887*
X1087*
Y1924*
X1109*
X1115Y1921*
X1118Y1915*
X1115Y1909*
X1109Y1906*
X1087*
X1109Y1106D02*
X1116Y1103D01*
X1119Y1096*
X1116Y1090*
X1109Y1087*
X1088*
Y1124*
X1109*
X1116Y1121*
X1119Y1115*
X1116Y1109*
X1109Y1106*
X1088*
X1109Y1296D02*
X1116Y1293D01*
X1119Y1286*
X1116Y1280*
X1109Y1277*
X1088*
Y1314*
X1109*
X1116Y1311*
X1119Y1305*
X1116Y1299*
X1109Y1296*
X1088*
X1109Y1501D02*
X1116Y1498D01*
X1119Y1491*
X1116Y1485*
X1109Y1482*
X1088*
Y1519*
X1109*
X1116Y1516*
X1119Y1510*
X1116Y1504*
X1109Y1501*
X1088*
X1109Y1701D02*
X1116Y1698D01*
X1119Y1691*
X1116Y1685*
X1109Y1682*
X1088*
Y1719*
X1109*
X1116Y1716*
X1119Y1710*
X1116Y1704*
X1109Y1701*
X1088*
X1119Y2331D02*
X1125Y2328D01*
X1128Y2321*
X1125Y2315*
X1119Y2312*
X1097*
Y2350*
X1119*
X1125Y2346*
X1128Y2340*
X1125Y2334*
X1119Y2331*
X1097*
X1159Y1756D02*
X1166Y1753D01*
X1169Y1746*
X1166Y1740*
X1159Y1737*
X1138*
Y1774*
X1159*
X1166Y1771*
X1169Y1765*
X1166Y1759*
X1159Y1756*
X1138*
X1159Y2056D02*
X1166Y2053D01*
X1169Y2046*
X1166Y2040*
X1159Y2037*
X1138*
Y2074*
X1159*
X1166Y2071*
X1169Y2065*
X1166Y2059*
X1159Y2056*
X1138*
X1176Y3219D02*
X1173Y3216D01*
X1166Y3213*
X1157*
X1151Y3216*
X1148Y3219*
X1145Y3226*
Y3238*
X1148Y3244*
X1151Y3247*
X1157Y3251*
X1166*
X1173Y3247*
X1176Y3244*
X1235Y3078D02*
X1231Y3075D01*
X1225Y3072*
X1216*
X1210Y3075*
X1206Y3078*
X1203Y3085*
Y3097*
X1206Y3103*
X1210Y3106*
X1216Y3110*
X1225*
X1231Y3106*
X1235Y3103*
X1234Y1556D02*
X1241Y1553D01*
X1244Y1546*
X1241Y1540*
X1234Y1537*
X1213*
Y1574*
X1234*
X1241Y1571*
X1244Y1565*
X1241Y1559*
X1234Y1556*
X1213*
X1234Y2056D02*
X1241Y2053D01*
X1244Y2046*
X1241Y2040*
X1234Y2037*
X1213*
Y2074*
X1234*
X1241Y2071*
X1244Y2065*
X1241Y2059*
X1234Y2056*
X1213*
X1251Y2988D02*
X1258Y2985D01*
X1261Y2979*
X1258Y2973*
X1251Y2970*
X1229*
Y3007*
X1251*
X1258Y3004*
X1261Y2998*
X1258Y2992*
X1251Y2988*
X1229*
X1284Y1106D02*
X1291Y1103D01*
X1294Y1096*
X1291Y1090*
X1284Y1087*
X1263*
Y1124*
X1284*
X1291Y1121*
X1294Y1115*
X1291Y1109*
X1284Y1106*
X1263*
X1284Y1296D02*
X1291Y1293D01*
X1294Y1286*
X1291Y1280*
X1284Y1277*
X1263*
Y1314*
X1284*
X1291Y1311*
X1294Y1305*
X1291Y1299*
X1284Y1296*
X1263*
X1284Y1501D02*
X1291Y1498D01*
X1294Y1491*
X1291Y1485*
X1284Y1482*
X1263*
Y1519*
X1284*
X1291Y1516*
X1294Y1510*
X1291Y1504*
X1284Y1501*
X1263*
X1284Y1701D02*
X1291Y1698D01*
X1294Y1691*
X1291Y1685*
X1284Y1682*
X1263*
Y1719*
X1284*
X1291Y1716*
X1294Y1710*
X1291Y1704*
X1284Y1701*
X1263*
X1284Y1906D02*
X1291Y1903D01*
X1294Y1896*
X1291Y1890*
X1284Y1887*
X1263*
Y1924*
X1284*
X1291Y1921*
X1294Y1915*
X1291Y1909*
X1284Y1906*
X1263*
X1299Y2516D02*
X1306Y2513D01*
X1309Y2506*
X1306Y2500*
X1299Y2497*
X1278*
Y2534*
X1299*
X1306Y2531*
X1309Y2525*
X1306Y2519*
X1299Y2516*
X1278*
X1306Y2428D02*
X1313Y2425D01*
X1316Y2419*
X1313Y2412*
X1306Y2409*
X1284*
Y2447*
X1306*
X1313Y2444*
X1316Y2437*
X1313Y2431*
X1306Y2428*
X1284*
X1349Y2338D02*
X1356Y2334D01*
X1359Y2328*
X1356Y2322*
X1349Y2319*
X1327*
Y2356*
X1349*
X1356Y2353*
X1359Y2347*
X1356Y2341*
X1349Y2338*
X1327*
X1384Y2056D02*
X1391Y2053D01*
X1394Y2046*
X1391Y2040*
X1384Y2037*
X1363*
Y2074*
X1384*
X1391Y2071*
X1394Y2065*
X1391Y2059*
X1384Y2056*
X1363*
X1399Y1343D02*
X1396Y1340D01*
X1389Y1337*
X1380*
X1374Y1340*
X1371Y1343*
X1368Y1349*
Y1362*
X1371Y1368*
X1374Y1371*
X1380Y1374*
X1389*
X1396Y1371*
X1399Y1368*
X1415Y2160D02*
X1421Y2157D01*
X1424Y2150*
X1421Y2144*
X1415Y2141*
X1393*
Y2179*
X1415*
X1421Y2175*
X1424Y2169*
X1421Y2163*
X1415Y2160*
X1393*
X1460Y2322D02*
X1466Y2319D01*
X1469Y2313*
X1466Y2306*
X1460Y2303*
X1438*
Y2341*
X1460*
X1466Y2338*
X1469Y2331*
X1466Y2325*
X1460Y2322*
X1438*
X1484Y1106D02*
X1491Y1103D01*
X1494Y1096*
X1491Y1090*
X1484Y1087*
X1463*
Y1124*
X1484*
X1491Y1121*
X1494Y1115*
X1491Y1109*
X1484Y1106*
X1463*
X1484Y1296D02*
X1491Y1293D01*
X1494Y1286*
X1491Y1280*
X1484Y1277*
X1463*
Y1314*
X1484*
X1491Y1311*
X1494Y1305*
X1491Y1299*
X1484Y1296*
X1463*
X1484Y1501D02*
X1491Y1498D01*
X1494Y1491*
X1491Y1485*
X1484Y1482*
X1463*
Y1519*
X1484*
X1491Y1516*
X1494Y1510*
X1491Y1504*
X1484Y1501*
X1463*
X1484Y1701D02*
X1491Y1698D01*
X1494Y1691*
X1491Y1685*
X1484Y1682*
X1463*
Y1719*
X1484*
X1491Y1716*
X1494Y1710*
X1491Y1704*
X1484Y1701*
X1463*
X1484Y1906D02*
X1491Y1903D01*
X1494Y1896*
X1491Y1890*
X1484Y1887*
X1463*
Y1924*
X1484*
X1491Y1921*
X1494Y1915*
X1491Y1909*
X1484Y1906*
X1463*
X1507Y2808D02*
X1513Y2804D01*
X1517Y2798*
X1513Y2792*
X1507Y2789*
X1485*
Y2826*
X1507*
X1513Y2823*
X1517Y2817*
X1513Y2811*
X1507Y2808*
X1485*
X1559Y1148D02*
X1566Y1144D01*
X1569Y1138*
X1566Y1132*
X1559Y1129*
X1538*
Y1166*
X1559*
X1566Y1163*
X1569Y1157*
X1566Y1151*
X1559Y1148*
X1538*
X1559Y2056D02*
X1566Y2053D01*
X1569Y2046*
X1566Y2040*
X1559Y2037*
X1538*
Y2074*
X1559*
X1566Y2071*
X1569Y2065*
X1566Y2059*
X1559Y2056*
X1538*
X1684Y1106D02*
X1691Y1103D01*
X1694Y1096*
X1691Y1090*
X1684Y1087*
X1663*
Y1124*
X1684*
X1691Y1121*
X1694Y1115*
X1691Y1109*
X1684Y1106*
X1663*
X1684Y1296D02*
X1691Y1293D01*
X1694Y1286*
X1691Y1280*
X1684Y1277*
X1663*
Y1314*
X1684*
X1691Y1311*
X1694Y1305*
X1691Y1299*
X1684Y1296*
X1663*
X1684Y1501D02*
X1691Y1498D01*
X1694Y1491*
X1691Y1485*
X1684Y1482*
X1663*
Y1519*
X1684*
X1691Y1516*
X1694Y1510*
X1691Y1504*
X1684Y1501*
X1663*
X1684Y1701D02*
X1691Y1698D01*
X1694Y1691*
X1691Y1685*
X1684Y1682*
X1663*
Y1719*
X1684*
X1691Y1716*
X1694Y1710*
X1691Y1704*
X1684Y1701*
X1663*
X1684Y1906D02*
X1691Y1903D01*
X1694Y1896*
X1691Y1890*
X1684Y1887*
X1663*
Y1924*
X1684*
X1691Y1921*
X1694Y1915*
X1691Y1909*
X1684Y1906*
X1663*
X1699Y563D02*
X1696Y560D01*
X1689Y557*
X1680*
X1674Y560*
X1671Y563*
X1668Y569*
Y582*
X1671Y588*
X1674Y591*
X1680Y594*
X1689*
X1696Y591*
X1699Y588*
X1749Y2087D02*
Y2125D01*
X1780*
X1774Y2106D02*
X1749D01*
Y2279D02*
Y2317D01*
X1780*
X1774Y2298D02*
X1749D01*
X1756Y724D02*
Y762D01*
X1788*
X1782Y743D02*
X1756D01*
Y724D02*
X1788D01*
X1756Y901D02*
Y939D01*
X1788*
X1782Y920D02*
X1756D01*
Y901D02*
X1788D01*
X1884Y1106D02*
X1891Y1103D01*
X1894Y1096*
X1891Y1090*
X1884Y1087*
X1863*
Y1124*
X1884*
X1891Y1121*
X1894Y1115*
X1891Y1109*
X1884Y1106*
X1863*
X1884Y1296D02*
X1891Y1293D01*
X1894Y1286*
X1891Y1280*
X1884Y1277*
X1863*
Y1314*
X1884*
X1891Y1311*
X1894Y1305*
X1891Y1299*
X1884Y1296*
X1863*
X1884Y1501D02*
X1891Y1498D01*
X1894Y1491*
X1891Y1485*
X1884Y1482*
X1863*
Y1519*
X1884*
X1891Y1516*
X1894Y1510*
X1891Y1504*
X1884Y1501*
X1863*
X1884Y1701D02*
X1891Y1698D01*
X1894Y1691*
X1891Y1685*
X1884Y1682*
X1863*
Y1719*
X1884*
X1891Y1716*
X1894Y1710*
X1891Y1704*
X1884Y1701*
X1863*
X1884Y1906D02*
X1891Y1903D01*
X1894Y1896*
X1891Y1890*
X1884Y1887*
X1863*
Y1924*
X1884*
X1891Y1921*
X1894Y1915*
X1891Y1909*
X1884Y1906*
X1863*
X1888Y3387D02*
Y3424D01*
Y3406D02*
X1897D01*
X1919Y3424*
X1897Y3406D02*
X1919Y3387D01*
X2013Y724D02*
Y762D01*
X2044*
X2038Y743D02*
X2013D01*
Y724D02*
X2044D01*
X2013Y901D02*
Y939D01*
X2044*
X2038Y920D02*
X2013D01*
Y901D02*
X2044D01*
X2137Y2732D02*
X2150D01*
X2144D02*
Y2769D01*
X2137D02*
X2150D01*
Y2830D02*
X2159D01*
Y2827*
X2156Y2821*
X2153Y2818*
X2147Y2814*
X2141*
X2134Y2818*
X2131Y2821*
X2128Y2827*
Y2839*
X2131Y2846*
X2134Y2849*
X2141Y2852*
X2147*
X2153Y2849*
X2156Y2846*
X2159Y2839*
X2150Y2909D02*
X2159D01*
Y2906*
X2156Y2899*
X2153Y2896*
X2147Y2893*
X2141*
X2134Y2896*
X2131Y2899*
X2128Y2906*
Y2918*
X2131Y2924*
X2134Y2928*
X2141Y2931*
X2147*
X2153Y2928*
X2156Y2924*
X2159Y2918*
X2150Y2988D02*
X2159D01*
Y2984*
X2156Y2978*
X2153Y2975*
X2147Y2972*
X2141*
X2134Y2975*
X2131Y2978*
X2128Y2984*
Y2997*
X2131Y3003*
X2134Y3006*
X2141Y3009*
X2147*
X2153Y3006*
X2156Y3003*
X2159Y2997*
X2128Y3055D02*
Y3092D01*
Y3073D02*
X2159D01*
Y3055D02*
Y3092D01*
X2250Y1287D02*
Y1324D01*
Y1306D02*
X2259D01*
X2281Y1324*
X2259Y1306D02*
X2281Y1287D01*
X2383Y1872D02*
Y1909D01*
Y1891D02*
X2392D01*
X2414Y1909*
X2392Y1891D02*
X2414Y1872D01*
X2438Y2552D02*
Y2589D01*
Y2570D02*
X2447D01*
X2469Y2589*
X2447Y2570D02*
X2469Y2552D01*
X0Y0D02*
M02*
