%FSLAX23Y23*%
%MOIN*%
G04 EasyPC Gerber Version 17.0 Build 3379 *
%ADD116C,0.00100*%
%ADD118C,0.00300*%
%ADD70C,0.00500*%
%ADD117C,0.00600*%
X0Y0D02*
D02*
D70*
X114Y2268D02*
X111Y2265D01*
X104Y2262*
X95*
X89Y2265*
X86Y2268*
X83Y2274*
Y2287*
X86Y2293*
X89Y2296*
X95Y2299*
X104*
X111Y2296*
X114Y2293*
X164Y2268D02*
X161Y2265D01*
X154Y2262*
X145*
X139Y2265*
X136Y2268*
X133Y2274*
Y2287*
X136Y2293*
X139Y2296*
X145Y2299*
X154*
X161Y2296*
X164Y2293*
X183Y2299D02*
Y2262D01*
X214*
X242D02*
X254D01*
X248D02*
Y2299D01*
X242D02*
X254D01*
X282Y2262D02*
Y2299D01*
X304*
X311Y2296*
X314Y2290*
X311Y2284*
X304Y2281*
X282*
X348Y2262D02*
Y2299D01*
X333Y2274*
X358*
X264Y1658D02*
X261Y1655D01*
X254Y1652*
X245*
X239Y1655*
X236Y1658*
X233Y1664*
Y1677*
X236Y1683*
X239Y1686*
X245Y1689*
X254*
X261Y1686*
X264Y1683*
X314Y1658D02*
X311Y1655D01*
X304Y1652*
X295*
X289Y1655*
X286Y1658*
X282Y1664*
Y1677*
X286Y1683*
X289Y1686*
X295Y1689*
X304*
X311Y1686*
X314Y1683*
X333Y1689D02*
Y1652D01*
X364*
X392D02*
X404D01*
X398D02*
Y1689D01*
X392D02*
X404D01*
X433Y1652D02*
Y1689D01*
X454*
X461Y1686*
X464Y1680*
X461Y1674*
X454Y1671*
X433*
X483Y1655D02*
X489Y1652D01*
X498*
X504Y1655*
X507Y1661*
Y1664*
X504Y1671*
X498Y1674*
X483*
Y1689*
X507*
X469Y3193D02*
X466Y3190D01*
X459Y3187*
X450*
X444Y3190*
X441Y3193*
X438Y3199*
Y3212*
X441Y3218*
X444Y3221*
X450Y3224*
X459*
X466Y3221*
X469Y3218*
X519Y3193D02*
X516Y3190D01*
X509Y3187*
X500*
X494Y3190*
X491Y3193*
X488Y3199*
Y3212*
X491Y3218*
X494Y3221*
X500Y3224*
X509*
X516Y3221*
X519Y3218*
X538Y3224D02*
Y3187D01*
X569*
X597D02*
X609D01*
X603D02*
Y3224D01*
X597D02*
X609D01*
X638Y3187D02*
Y3224D01*
X659*
X666Y3221*
X669Y3215*
X666Y3209*
X659Y3206*
X638*
X697D02*
X703D01*
X709Y3209*
X713Y3215*
X709Y3221*
X703Y3224*
X697*
X691Y3221*
X688Y3215*
X691Y3209*
X697Y3206*
X691Y3203*
X688Y3196*
X691Y3190*
X697Y3187*
X703*
X709Y3190*
X713Y3196*
X709Y3203*
X703Y3206*
X379Y1073D02*
X376Y1070D01*
X369Y1067*
X360*
X354Y1070*
X351Y1073*
X348Y1079*
Y1092*
X351Y1098*
X354Y1101*
X360Y1104*
X369*
X376Y1101*
X379Y1098*
X429Y1073D02*
X426Y1070D01*
X419Y1067*
X410*
X404Y1070*
X401Y1073*
X398Y1079*
Y1092*
X401Y1098*
X404Y1101*
X410Y1104*
X419*
X426Y1101*
X429Y1098*
X448Y1104D02*
Y1067D01*
X479*
X507D02*
X519D01*
X513D02*
Y1104D01*
X507D02*
X519D01*
X548Y1067D02*
Y1104D01*
X569*
X576Y1101*
X579Y1095*
X576Y1089*
X569Y1086*
X548*
X598Y1076D02*
X601Y1083D01*
X607Y1086*
X613*
X619Y1083*
X623Y1076*
X619Y1070*
X613Y1067*
X607*
X601Y1070*
X598Y1076*
Y1086*
X601Y1095*
X607Y1101*
X613Y1104*
X815Y3D02*
X1836D01*
X2563Y729*
Y2875*
X1875Y3563*
X1688*
X1538Y3413*
Y3412*
X1503Y3378*
X1075*
X890Y3563*
X700*
X3Y2865*
Y815*
X815Y3*
X1894Y3188D02*
X1891Y3185D01*
X1884Y3182*
X1875*
X1869Y3185*
X1866Y3188*
X1863Y3194*
Y3207*
X1866Y3213*
X1869Y3216*
X1875Y3219*
X1884*
X1891Y3216*
X1894Y3213*
X1944Y3188D02*
X1941Y3185D01*
X1934Y3182*
X1925*
X1919Y3185*
X1916Y3188*
X1913Y3194*
Y3207*
X1916Y3213*
X1919Y3216*
X1925Y3219*
X1934*
X1941Y3216*
X1944Y3213*
X1963Y3219D02*
Y3182D01*
X1994*
X2022D02*
X2034D01*
X2028D02*
Y3219D01*
X2022D02*
X2034D01*
X2063Y3182D02*
Y3219D01*
X2084*
X2091Y3216*
X2094Y3210*
X2091Y3204*
X2084Y3201*
X2063*
X2113Y3182D02*
X2138Y3219D01*
X2113*
X1899Y1793D02*
X1896Y1790D01*
X1889Y1787*
X1880*
X1874Y1790*
X1871Y1793*
X1868Y1799*
Y1812*
X1871Y1818*
X1874Y1821*
X1880Y1824*
X1889*
X1896Y1821*
X1899Y1818*
X1949Y1793D02*
X1946Y1790D01*
X1939Y1787*
X1930*
X1924Y1790*
X1921Y1793*
X1918Y1799*
Y1812*
X1921Y1818*
X1924Y1821*
X1930Y1824*
X1939*
X1946Y1821*
X1949Y1818*
X1968Y1824D02*
Y1787D01*
X1999*
X2027D02*
X2039D01*
X2033D02*
Y1824D01*
X2027D02*
X2039D01*
X2067Y1787D02*
Y1824D01*
X2089*
X2096Y1821*
X2099Y1815*
X2096Y1809*
X2089Y1806*
X2067*
X2143Y1787D02*
X2118D01*
X2139Y1809*
X2143Y1815*
X2139Y1821*
X2133Y1824*
X2124*
X2118Y1821*
X2067Y1727D02*
X2083Y1764D01*
X2099Y1727*
X2074Y1743D02*
X2092D01*
X2133Y1727D02*
Y1764D01*
X2118Y1739*
X2143*
X1919Y1058D02*
X1916Y1055D01*
X1909Y1052*
X1900*
X1894Y1055*
X1891Y1058*
X1888Y1064*
Y1077*
X1891Y1083*
X1894Y1086*
X1900Y1089*
X1909*
X1916Y1086*
X1919Y1083*
X1969Y1058D02*
X1966Y1055D01*
X1959Y1052*
X1950*
X1944Y1055*
X1941Y1058*
X1938Y1064*
Y1077*
X1941Y1083*
X1944Y1086*
X1950Y1089*
X1959*
X1966Y1086*
X1969Y1083*
X1988Y1089D02*
Y1052D01*
X2019*
X2047D02*
X2059D01*
X2053D02*
Y1089D01*
X2047D02*
X2059D01*
X2088Y1052D02*
Y1089D01*
X2109*
X2116Y1086*
X2119Y1080*
X2116Y1074*
X2109Y1071*
X2088*
X2141Y1055D02*
X2147Y1052D01*
X2153*
X2159Y1055*
X2163Y1061*
X2159Y1067*
X2153Y1071*
X2147*
X2153D02*
X2159Y1074D01*
X2163Y1080*
X2159Y1086*
X2153Y1089*
X2147*
X2141Y1086*
X2088Y992D02*
X2103Y1029D01*
X2119Y992*
X2094Y1008D02*
X2113D01*
X2141Y995D02*
X2147Y992D01*
X2153*
X2159Y995*
X2163Y1001*
X2159Y1008*
X2153Y1011*
X2147*
X2153D02*
X2159Y1014D01*
X2163Y1020*
X2159Y1026*
X2153Y1029*
X2147*
X2141Y1026*
X1964Y2418D02*
X1961Y2415D01*
X1954Y2412*
X1945*
X1939Y2415*
X1936Y2418*
X1933Y2424*
Y2437*
X1936Y2443*
X1939Y2446*
X1945Y2449*
X1954*
X1961Y2446*
X1964Y2443*
X2014Y2418D02*
X2011Y2415D01*
X2004Y2412*
X1995*
X1989Y2415*
X1986Y2418*
X1983Y2424*
Y2437*
X1986Y2443*
X1989Y2446*
X1995Y2449*
X2004*
X2011Y2446*
X2014Y2443*
X2033Y2449D02*
Y2412D01*
X2064*
X2092D02*
X2104D01*
X2098D02*
Y2449D01*
X2092D02*
X2104D01*
X2133Y2412D02*
Y2449D01*
X2154*
X2161Y2446*
X2164Y2440*
X2161Y2434*
X2154Y2431*
X2133*
X2189Y2412D02*
X2201D01*
X2195D02*
Y2449D01*
X2189Y2443*
X2133Y2352D02*
X2148Y2389D01*
X2164Y2352*
X2139Y2368D02*
X2158D01*
X2183Y2355D02*
X2189Y2352D01*
X2198*
X2204Y2355*
X2208Y2361*
Y2364*
X2204Y2371*
X2198Y2374*
X2183*
Y2389*
X2208*
D02*
D116*
X1021Y2517D02*
X1011Y2506D01*
X1018Y2499*
X1028Y2509*
X1021Y2517*
G36*
X1011Y2506*
X1018Y2499*
X1028Y2509*
X1021Y2517*
G37*
X1174Y2173D02*
X1167Y2165D01*
X1177Y2155*
X1184Y2162*
X1174Y2173*
G36*
X1167Y2165*
X1177Y2155*
X1184Y2162*
X1174Y2173*
G37*
X1444Y2621D02*
X1451Y2628D01*
X1461Y2617*
X1454Y2610*
X1444Y2621*
G36*
X1451Y2628*
X1461Y2617*
X1454Y2610*
X1444Y2621*
G37*
X1528Y2277D02*
X1518Y2266D01*
X1511Y2273*
X1521Y2284*
X1528Y2277*
G36*
X1518Y2266*
X1511Y2273*
X1521Y2284*
X1528Y2277*
G37*
D02*
D117*
X548Y2658D02*
Y2463D01*
X588Y2128D02*
G75*
G03X582I-3D01*
G01*
G75*
G03X588I3*
G01*
X619Y2442D02*
X713D01*
X644Y2225D02*
X681D01*
X667Y799D02*
Y706D01*
X673Y3178D02*
Y3128D01*
X681Y2280D02*
X644D01*
X687Y636D02*
X882D01*
X703Y3133D02*
X673Y3153D01*
X703Y3138*
Y3143D02*
X673Y3153D01*
X703Y3148*
Y3168D02*
X673Y3153D01*
X703Y3163*
Y3173D02*
X673Y3153D01*
X703Y3178*
Y3128*
X673Y3153*
X703Y3158*
X712Y2679D02*
X619D01*
X713Y3153D02*
X663D01*
X747Y2028D02*
G75*
G03X753I3D01*
G01*
G75*
G03X747I-3*
G01*
X769Y525D02*
X806D01*
X782Y3050D02*
X793D01*
X784Y2463D02*
Y2646D01*
X793Y3105D02*
X782D01*
X806Y580D02*
X769D01*
X881Y2653D02*
G75*
G03X877Y2649I-2J-2D01*
G01*
G75*
G03X881Y2653I2J2*
G01*
X882Y872D02*
X699D01*
X894Y1100D02*
X931D01*
X894Y1300D02*
X931D01*
X894Y1500D02*
X931D01*
X894Y1700D02*
X931D01*
X903Y706D02*
Y801D01*
X931Y1155D02*
X894D01*
X931Y1355D02*
X894D01*
X931Y1555D02*
X894D01*
X931Y1755D02*
X894D01*
X945Y2821D02*
X960Y2806D01*
X956Y900D02*
X994D01*
X962Y1028D02*
X1012D01*
X962Y1218D02*
X1012D01*
X962Y1423D02*
X1012D01*
X962Y1623D02*
X1012D01*
X962Y1828D02*
X1012D01*
X972Y1008D02*
X1002Y1028D01*
X972Y1002*
Y1053*
X1002Y1028*
X972Y1023*
Y1013D02*
X1002Y1028D01*
X972Y1018*
Y1038D02*
X1002Y1028D01*
X972Y1033*
Y1048D02*
X1002Y1028D01*
X972Y1043*
Y1198D02*
X1002Y1218D01*
X972Y1192*
Y1242*
X1002Y1218*
X972Y1213*
Y1202D02*
X1002Y1218D01*
X972Y1208*
Y1228D02*
X1002Y1218D01*
X972Y1223*
Y1238D02*
X1002Y1218D01*
X972Y1233*
Y1403D02*
X1002Y1423D01*
X972Y1398*
Y1448*
X1002Y1423*
X972Y1418*
Y1408D02*
X1002Y1423D01*
X972Y1413*
Y1433D02*
X1002Y1423D01*
X972Y1428*
Y1443D02*
X1002Y1423D01*
X972Y1438*
Y1603D02*
X1002Y1623D01*
X972Y1598*
Y1648*
X1002Y1623*
X972Y1618*
Y1608D02*
X1002Y1623D01*
X972Y1613*
Y1633D02*
X1002Y1623D01*
X972Y1628*
Y1643D02*
X1002Y1623D01*
X972Y1638*
Y1808D02*
X1002Y1828D01*
X972Y1803*
Y1853*
X1002Y1828*
X972Y1823*
Y1813D02*
X1002Y1828D01*
X972Y1817*
Y1838D02*
X1002Y1828D01*
X972Y1833*
Y1847D02*
X1002Y1828D01*
X972Y1843*
X994Y955D02*
X956D01*
X999Y2845D02*
X984Y2860D01*
X1002Y1002D02*
Y1053D01*
Y1192D02*
Y1242D01*
Y1398D02*
Y1448D01*
Y1598D02*
Y1648D01*
Y1803D02*
Y1853D01*
X1025Y2398D02*
X1010Y2414D01*
X1025Y2429*
X1061Y2832D02*
X1076Y2817D01*
X1115Y2856D02*
X1100Y2871D01*
X1140Y3164D02*
Y3136D01*
X1162Y1028D02*
X1212D01*
X1162Y1218D02*
X1212D01*
X1162Y1423D02*
X1212D01*
X1162Y1623D02*
X1212D01*
X1162Y1828D02*
X1212D01*
X1172Y1008D02*
X1202Y1028D01*
X1172Y1002*
Y1053*
X1202Y1028*
X1172Y1023*
Y1013D02*
X1202Y1028D01*
X1172Y1018*
Y1038D02*
X1202Y1028D01*
X1172Y1033*
Y1048D02*
X1202Y1028D01*
X1172Y1043*
Y1198D02*
X1202Y1218D01*
X1172Y1192*
Y1242*
X1202Y1218*
X1172Y1213*
Y1202D02*
X1202Y1218D01*
X1172Y1208*
Y1228D02*
X1202Y1218D01*
X1172Y1223*
Y1238D02*
X1202Y1218D01*
X1172Y1233*
Y1403D02*
X1202Y1423D01*
X1172Y1398*
Y1448*
X1202Y1423*
X1172Y1418*
Y1408D02*
X1202Y1423D01*
X1172Y1413*
Y1433D02*
X1202Y1423D01*
X1172Y1428*
Y1443D02*
X1202Y1423D01*
X1172Y1438*
Y1603D02*
X1202Y1623D01*
X1172Y1598*
Y1648*
X1202Y1623*
X1172Y1618*
Y1608D02*
X1202Y1623D01*
X1172Y1613*
Y1633D02*
X1202Y1623D01*
X1172Y1628*
Y1643D02*
X1202Y1623D01*
X1172Y1638*
Y1808D02*
X1202Y1828D01*
X1172Y1803*
Y1853*
X1202Y1828*
X1172Y1823*
Y1813D02*
X1202Y1828D01*
X1172Y1817*
Y1838D02*
X1202Y1828D01*
X1172Y1833*
Y1847D02*
X1202Y1828D01*
X1172Y1843*
X1202Y1002D02*
Y1053D01*
Y1192D02*
Y1242D01*
Y1398D02*
Y1448D01*
Y1598D02*
Y1648D01*
Y1803D02*
Y1853D01*
X1204Y3071D02*
X1216D01*
X1276Y2660D02*
X1307D01*
X1277Y2147D02*
X1292Y2132D01*
X1307Y2147*
X1301Y3291D02*
X1276Y3341D01*
X1251Y3291*
X1307Y2680D02*
X1292Y2695D01*
X1277Y2680*
X1362Y1028D02*
X1412D01*
X1362Y1218D02*
X1412D01*
X1362Y1423D02*
X1412D01*
X1362Y1623D02*
X1412D01*
X1362Y1828D02*
X1412D01*
X1362Y3071D02*
X1375D01*
X1372Y1008D02*
X1402Y1028D01*
X1372Y1002*
Y1053*
X1402Y1028*
X1372Y1023*
Y1013D02*
X1402Y1028D01*
X1372Y1018*
Y1038D02*
X1402Y1028D01*
X1372Y1033*
Y1048D02*
X1402Y1028D01*
X1372Y1043*
Y1198D02*
X1402Y1218D01*
X1372Y1192*
Y1242*
X1402Y1218*
X1372Y1213*
Y1202D02*
X1402Y1218D01*
X1372Y1208*
Y1228D02*
X1402Y1218D01*
X1372Y1223*
Y1238D02*
X1402Y1218D01*
X1372Y1233*
Y1403D02*
X1402Y1423D01*
X1372Y1398*
Y1448*
X1402Y1423*
X1372Y1418*
Y1408D02*
X1402Y1423D01*
X1372Y1413*
Y1433D02*
X1402Y1423D01*
X1372Y1428*
Y1443D02*
X1402Y1423D01*
X1372Y1438*
Y1603D02*
X1402Y1623D01*
X1372Y1598*
Y1648*
X1402Y1623*
X1372Y1618*
Y1608D02*
X1402Y1623D01*
X1372Y1613*
Y1633D02*
X1402Y1623D01*
X1372Y1628*
Y1643D02*
X1402Y1623D01*
X1372Y1638*
Y1808D02*
X1402Y1828D01*
X1372Y1803*
Y1853*
X1402Y1828*
X1372Y1823*
Y1813D02*
X1402Y1828D01*
X1372Y1817*
Y1838D02*
X1402Y1828D01*
X1372Y1833*
Y1847D02*
X1402Y1828D01*
X1372Y1843*
X1402Y1002D02*
Y1053D01*
Y1192D02*
Y1242D01*
Y1398D02*
Y1448D01*
Y1598D02*
Y1648D01*
Y1803D02*
Y1853D01*
X1439Y3136D02*
Y3164D01*
Y3243D02*
Y3291D01*
X1140*
Y3243*
X1558Y2398D02*
X1573Y2414D01*
X1558Y2429*
X1562Y1218D02*
X1612D01*
X1562Y1423D02*
X1612D01*
X1562Y1623D02*
X1612D01*
X1562Y1828D02*
X1612D01*
X1563Y2251D02*
Y1998D01*
G75*
G03X1649Y1912I86*
G01*
G75*
G03X1734Y1998J86*
G01*
Y2251*
G75*
G03X1563I-86*
G01*
X1567Y1023D02*
X1617D01*
X1572Y1198D02*
X1602Y1218D01*
X1572Y1192*
Y1242*
X1602Y1218*
X1572Y1213*
Y1202D02*
X1602Y1218D01*
X1572Y1208*
Y1228D02*
X1602Y1218D01*
X1572Y1223*
Y1238D02*
X1602Y1218D01*
X1572Y1233*
Y1403D02*
X1602Y1423D01*
X1572Y1398*
Y1448*
X1602Y1423*
X1572Y1418*
Y1408D02*
X1602Y1423D01*
X1572Y1413*
Y1433D02*
X1602Y1423D01*
X1572Y1428*
Y1443D02*
X1602Y1423D01*
X1572Y1438*
Y1603D02*
X1602Y1623D01*
X1572Y1598*
Y1648*
X1602Y1623*
X1572Y1618*
Y1608D02*
X1602Y1623D01*
X1572Y1613*
Y1633D02*
X1602Y1623D01*
X1572Y1628*
Y1643D02*
X1602Y1623D01*
X1572Y1638*
Y1808D02*
X1602Y1828D01*
X1572Y1803*
Y1853*
X1602Y1828*
X1572Y1823*
Y1813D02*
X1602Y1828D01*
X1572Y1817*
Y1838D02*
X1602Y1828D01*
X1572Y1833*
Y1847D02*
X1602Y1828D01*
X1572Y1843*
X1577Y1002D02*
X1607Y1023D01*
X1577Y998*
Y1048*
X1607Y1023*
X1577Y1018*
Y1008D02*
X1607Y1023D01*
X1577Y1013*
Y1033D02*
X1607Y1023D01*
X1577Y1028*
Y1043D02*
X1607Y1023D01*
X1577Y1038*
X1602Y1192D02*
Y1242D01*
Y1398D02*
Y1448D01*
Y1598D02*
Y1648D01*
Y1803D02*
Y1853D01*
X1607Y998D02*
Y1048D01*
X1649Y2396D02*
Y2346D01*
X1666Y799D02*
Y706D01*
X1673Y3178D02*
Y3128D01*
X1674Y2371D02*
X1624D01*
X1687Y636D02*
X1882D01*
X1703Y3133D02*
X1673Y3153D01*
X1703Y3138*
Y3143D02*
X1673Y3153D01*
X1703Y3148*
Y3168D02*
X1673Y3153D01*
X1703Y3163*
Y3173D02*
X1673Y3153D01*
X1703Y3178*
Y3128*
X1673Y3153*
X1703Y3158*
X1713Y3153D02*
X1663D01*
X1762Y1028D02*
X1812D01*
X1762Y1218D02*
X1812D01*
X1762Y1423D02*
X1812D01*
X1762Y1623D02*
X1812D01*
X1762Y1828D02*
X1812D01*
X1769Y525D02*
X1806D01*
X1772Y1008D02*
X1802Y1028D01*
X1772Y1002*
Y1053*
X1802Y1028*
X1772Y1023*
Y1013D02*
X1802Y1028D01*
X1772Y1018*
Y1038D02*
X1802Y1028D01*
X1772Y1033*
Y1048D02*
X1802Y1028D01*
X1772Y1043*
Y1198D02*
X1802Y1218D01*
X1772Y1192*
Y1242*
X1802Y1218*
X1772Y1213*
Y1202D02*
X1802Y1218D01*
X1772Y1208*
Y1228D02*
X1802Y1218D01*
X1772Y1223*
Y1238D02*
X1802Y1218D01*
X1772Y1233*
Y1403D02*
X1802Y1423D01*
X1772Y1398*
Y1448*
X1802Y1423*
X1772Y1418*
Y1408D02*
X1802Y1423D01*
X1772Y1413*
Y1433D02*
X1802Y1423D01*
X1772Y1428*
Y1443D02*
X1802Y1423D01*
X1772Y1438*
Y1603D02*
X1802Y1623D01*
X1772Y1598*
Y1648*
X1802Y1623*
X1772Y1618*
Y1608D02*
X1802Y1623D01*
X1772Y1613*
Y1633D02*
X1802Y1623D01*
X1772Y1628*
Y1643D02*
X1802Y1623D01*
X1772Y1638*
Y1808D02*
X1802Y1828D01*
X1772Y1803*
Y1853*
X1802Y1828*
X1772Y1823*
Y1813D02*
X1802Y1828D01*
X1772Y1817*
Y1838D02*
X1802Y1828D01*
X1772Y1833*
Y1847D02*
X1802Y1828D01*
X1772Y1843*
X1782Y3025D02*
X1793D01*
Y3080D02*
X1782D01*
X1802Y1002D02*
Y1053D01*
Y1192D02*
Y1242D01*
Y1398D02*
Y1448D01*
Y1598D02*
Y1648D01*
Y1803D02*
Y1853D01*
X1806Y580D02*
X1769D01*
X1882Y872D02*
X1699D01*
X1903Y706D02*
Y801D01*
D02*
D118*
X513Y2237D02*
Y2274D01*
X534*
X541Y2271*
X544Y2265*
X541Y2259*
X534Y2256*
X513*
X534D02*
X544Y2237D01*
X569D02*
X581D01*
X575D02*
Y2274D01*
X569Y2268*
X613Y2240D02*
X619Y2237D01*
X628*
X634Y2240*
X638Y2246*
Y2249*
X634Y2256*
X628Y2259*
X613*
Y2274*
X638*
X559Y2018D02*
X556Y2015D01*
X549Y2012*
X540*
X534Y2015*
X531Y2018*
X527Y2024*
Y2037*
X531Y2043*
X534Y2046*
X540Y2049*
X549*
X556Y2046*
X559Y2043*
X603Y2012D02*
X578D01*
X599Y2034*
X603Y2040*
X599Y2046*
X593Y2049*
X584*
X578Y2046*
X569Y2156D02*
X566Y2153D01*
X559Y2149*
X550*
X544Y2153*
X541Y2156*
X538Y2162*
Y2174*
X541Y2181*
X544Y2184*
X550Y2187*
X559*
X566Y2184*
X569Y2181*
X594Y2149D02*
X606D01*
X600D02*
Y2187D01*
X594Y2181*
X538Y2768D02*
Y2739D01*
X541Y2733*
X547Y2730*
X560*
X566Y2733*
X569Y2739*
Y2768*
X604Y2730D02*
Y2768D01*
X588Y2743*
X613*
X573Y487D02*
Y524D01*
X594*
X601Y521*
X604Y515*
X601Y509*
X594Y506*
X573*
X594D02*
X604Y487D01*
X629D02*
X641D01*
X635D02*
Y524D01*
X629Y518*
X676Y490D02*
X682Y487D01*
X688*
X694Y490*
X698Y496*
X694Y502*
X688Y506*
X682*
X688D02*
X694Y509D01*
X698Y515*
X694Y521*
X688Y524*
X682*
X676Y521*
X635Y775D02*
Y747D01*
X638Y741*
X644Y738*
X656*
X663Y741*
X666Y747*
Y775*
X710Y738D02*
X685D01*
X706Y760*
X710Y766*
X706Y772*
X700Y775*
X691*
X685Y772*
X734Y3052D02*
Y3015D01*
X765*
X784D02*
Y3052D01*
X815*
X809Y3033D02*
X784D01*
Y3015D02*
X815D01*
X834D02*
Y3052D01*
X853*
X859Y3049*
X862Y3046*
X865Y3040*
Y3027*
X862Y3021*
X859Y3018*
X853Y3015*
X834*
X909D02*
X884D01*
X906Y3036*
X909Y3043*
X906Y3049*
X899Y3052*
X890*
X884Y3049*
X934Y3024D02*
X937Y3030D01*
X943Y3033*
X949*
X956Y3030*
X959Y3024*
X956Y3018*
X949Y3015*
X943*
X937Y3018*
X934Y3024*
Y3033*
X937Y3043*
X943Y3049*
X949Y3052*
X763Y1149D02*
Y1121D01*
X766Y1115*
X772Y1112*
X784*
X791Y1115*
X794Y1121*
Y1149*
X813Y1121D02*
X816Y1127D01*
X822Y1131*
X828*
X834Y1127*
X838Y1121*
X834Y1115*
X828Y1112*
X822*
X816Y1115*
X813Y1121*
Y1131*
X816Y1140*
X822Y1146*
X828Y1149*
X763Y1349D02*
Y1321D01*
X766Y1315*
X772Y1312*
X784*
X791Y1315*
X794Y1321*
Y1349*
X813Y1312D02*
X838Y1349D01*
X813*
X763Y1549D02*
Y1521D01*
X766Y1515*
X772Y1512*
X784*
X791Y1515*
X794Y1521*
Y1549*
X822Y1531D02*
X828D01*
X834Y1534*
X838Y1540*
X834Y1546*
X828Y1549*
X822*
X816Y1546*
X813Y1540*
X816Y1534*
X822Y1531*
X816Y1528*
X813Y1521*
X816Y1515*
X822Y1512*
X828*
X834Y1515*
X838Y1521*
X834Y1528*
X828Y1531*
X763Y1749D02*
Y1721D01*
X766Y1715*
X772Y1712*
X784*
X791Y1715*
X794Y1721*
Y1749*
X822Y1712D02*
X828Y1715D01*
X834Y1721*
X838Y1731*
Y1740*
X834Y1746*
X828Y1749*
X822*
X816Y1746*
X813Y1740*
X816Y1734*
X822Y1731*
X828*
X834Y1734*
X838Y1740*
X788Y1874D02*
Y1837D01*
X819*
X838Y1840D02*
X844Y1837D01*
X853*
X859Y1840*
X863Y1846*
Y1849*
X859Y1856*
X853Y1859*
X838*
Y1874*
X863*
X825Y949D02*
Y921D01*
X828Y915*
X834Y912*
X847*
X853Y915*
X856Y921*
Y949*
X875Y915D02*
X881Y912D01*
X891*
X897Y915*
X900Y921*
Y924*
X897Y931*
X891Y934*
X875*
Y949*
X900*
X834Y1487D02*
Y1450D01*
X866*
X888Y1453D02*
X894Y1450D01*
X900*
X906Y1453*
X909Y1459*
X906Y1465*
X900Y1468*
X894*
X900D02*
X906Y1471D01*
X909Y1478*
X906Y1484*
X900Y1487*
X894*
X888Y1484*
X834Y1687D02*
Y1650D01*
X866*
X900D02*
Y1687D01*
X884Y1662*
X909*
X838Y1277D02*
Y1239D01*
X869*
X913D02*
X888D01*
X909Y1261*
X913Y1268*
X909Y1274*
X903Y1277*
X894*
X888Y1274*
X838Y3087D02*
Y3124D01*
X859*
X866Y3121*
X869Y3115*
X866Y3109*
X859Y3106*
X838*
X859D02*
X869Y3087D01*
X894D02*
X906D01*
X900D02*
Y3124D01*
X894Y3118*
X850Y1087D02*
Y1049D01*
X881*
X906D02*
X919D01*
X913D02*
Y1087D01*
X906Y1081*
X877Y2726D02*
Y2722D01*
X875Y2715*
X868Y2709*
X862Y2706*
X857*
X851Y2709*
X842Y2717*
X840Y2724*
Y2729*
X842Y2735*
X848Y2742*
X855Y2744*
X860*
X906Y2746D02*
X879Y2773D01*
X886Y2744*
X904Y2762*
X947Y2895D02*
X920Y2868D01*
X905Y2884*
X903Y2891*
X905Y2897*
X912Y2899*
X918Y2897*
X934Y2882*
X918Y2897D02*
X925Y2917D01*
X907Y2935D02*
X898Y2944D01*
X903Y2939D02*
X876Y2913D01*
X885*
X872Y2970D02*
X863Y2979D01*
X867Y2975D02*
X841Y2948D01*
X850*
X1013Y1899D02*
Y1862D01*
X1044*
X1069D02*
X1081D01*
X1075D02*
Y1899D01*
X1069Y1893*
X1116Y1865D02*
X1122Y1862D01*
X1128*
X1134Y1865*
X1138Y1871*
Y1890*
X1134Y1896*
X1128Y1899*
X1122*
X1116Y1896*
X1113Y1890*
Y1871*
X1116Y1865*
X1134Y1896*
X1034Y1092D02*
Y1055D01*
X1066*
X1084Y1064D02*
X1088Y1070D01*
X1094Y1073*
X1100*
X1106Y1070*
X1109Y1064*
X1106Y1058*
X1100Y1055*
X1094*
X1088Y1058*
X1084Y1064*
Y1073*
X1088Y1083*
X1094Y1089*
X1100Y1092*
X1034Y1282D02*
Y1245D01*
X1066*
X1084D02*
X1109Y1282D01*
X1084*
X1034Y1687D02*
Y1650D01*
X1066*
X1094D02*
X1100Y1653D01*
X1106Y1659*
X1109Y1668*
Y1678*
X1106Y1684*
X1100Y1687*
X1094*
X1088Y1684*
X1084Y1678*
X1088Y1671*
X1094Y1668*
X1100*
X1106Y1671*
X1109Y1678*
X1057Y2900D02*
X1030Y2873D01*
X1015Y2889*
X1013Y2896*
X1015Y2902*
X1021Y2904*
X1028Y2902*
X1043Y2887*
X1028Y2902D02*
X1035Y2922D01*
X1017Y2940D02*
X1008Y2949D01*
X1013Y2944D02*
X986Y2918D01*
X995*
X982Y2971D02*
X979Y2977D01*
X975Y2982*
X968Y2984*
X962Y2982*
X948Y2968*
X946Y2962*
X948Y2955*
X953Y2951*
X959Y2949*
X966Y2951*
X979Y2964*
X982Y2971*
X946Y2962*
X1215Y2752D02*
X1232Y2735D01*
X1210Y2739D02*
X1237Y2748D01*
X1228Y2757D02*
X1219Y2730D01*
X1233Y1269D02*
Y1232D01*
X1264*
X1289D02*
X1301D01*
X1295D02*
Y1269D01*
X1289Y1263*
X1358Y1232D02*
X1333D01*
X1354Y1254*
X1358Y1260*
X1354Y1266*
X1348Y1269*
X1339*
X1333Y1266*
X1234Y1092D02*
Y1055D01*
X1266*
X1291D02*
X1303D01*
X1297D02*
Y1092D01*
X1291Y1086*
X1341Y1055D02*
X1353D01*
X1347D02*
Y1092D01*
X1341Y1086*
X1234Y1487D02*
Y1450D01*
X1266*
X1291D02*
X1303D01*
X1297D02*
Y1487D01*
X1291Y1481*
X1338Y1453D02*
X1344Y1450D01*
X1350*
X1356Y1453*
X1359Y1459*
X1356Y1465*
X1350Y1468*
X1344*
X1350D02*
X1356Y1471D01*
X1359Y1478*
X1356Y1484*
X1350Y1487*
X1344*
X1338Y1484*
X1234Y1687D02*
Y1650D01*
X1266*
X1291D02*
X1303D01*
X1297D02*
Y1687D01*
X1291Y1681*
X1350Y1650D02*
Y1687D01*
X1334Y1662*
X1359*
X1238Y1899D02*
Y1862D01*
X1269*
X1294D02*
X1306D01*
X1300D02*
Y1899D01*
X1294Y1893*
X1338Y1865D02*
X1344Y1862D01*
X1353*
X1359Y1865*
X1363Y1871*
Y1874*
X1359Y1881*
X1353Y1884*
X1338*
Y1899*
X1363*
X1275Y2472D02*
X1255Y2452D01*
X1253Y2445*
X1255Y2439*
X1264Y2430*
X1270Y2428*
X1277Y2430*
X1297Y2450*
X1288Y2405D02*
X1297Y2397D01*
X1293Y2401D02*
X1319Y2428D01*
X1310*
X1434Y1282D02*
Y1245D01*
X1466*
X1491D02*
X1503D01*
X1497D02*
Y1282D01*
X1491Y1276*
X1534Y1245D02*
X1559Y1282D01*
X1534*
X1434Y1487D02*
Y1450D01*
X1466*
X1491D02*
X1503D01*
X1497D02*
Y1487D01*
X1491Y1481*
X1544Y1468D02*
X1550D01*
X1556Y1471*
X1559Y1478*
X1556Y1484*
X1550Y1487*
X1544*
X1538Y1484*
X1534Y1478*
X1538Y1471*
X1544Y1468*
X1538Y1465*
X1534Y1459*
X1538Y1453*
X1544Y1450*
X1550*
X1556Y1453*
X1559Y1459*
X1556Y1465*
X1550Y1468*
X1434Y1687D02*
Y1650D01*
X1466*
X1491D02*
X1503D01*
X1497D02*
Y1687D01*
X1491Y1681*
X1544Y1650D02*
X1550Y1653D01*
X1556Y1659*
X1559Y1668*
Y1678*
X1556Y1684*
X1550Y1687*
X1544*
X1538Y1684*
X1534Y1678*
X1538Y1671*
X1544Y1668*
X1550*
X1556Y1671*
X1559Y1678*
X1434Y1892D02*
Y1855D01*
X1466*
X1509D02*
X1484D01*
X1506Y1876*
X1509Y1883*
X1506Y1889*
X1500Y1892*
X1491*
X1484Y1889*
X1538Y1858D02*
X1544Y1855D01*
X1550*
X1556Y1858*
X1559Y1864*
Y1883*
X1556Y1889*
X1550Y1892*
X1544*
X1538Y1889*
X1534Y1883*
Y1864*
X1538Y1858*
X1556Y1889*
X1439Y3081D02*
X1436Y3084D01*
X1430Y3087*
X1424Y3084*
X1420Y3081*
Y3049*
X1414*
X1420D02*
X1433D01*
X1383Y3087D02*
X1370D01*
X1377D02*
Y3049D01*
X1383Y3056*
X1439Y1087D02*
Y1050D01*
X1471*
X1496D02*
X1508D01*
X1502D02*
Y1087D01*
X1496Y1081*
X1539Y1059D02*
X1543Y1065D01*
X1549Y1068*
X1555*
X1561Y1065*
X1564Y1059*
X1561Y1053*
X1555Y1050*
X1549*
X1543Y1053*
X1539Y1059*
Y1068*
X1543Y1078*
X1549Y1084*
X1555Y1087*
X1634Y1092D02*
Y1055D01*
X1666*
X1709D02*
X1684D01*
X1706Y1076*
X1709Y1083*
X1706Y1089*
X1700Y1092*
X1691*
X1684Y1089*
X1741Y1055D02*
X1753D01*
X1747D02*
Y1092D01*
X1741Y1086*
X1634Y1282D02*
Y1245D01*
X1666*
X1709D02*
X1684D01*
X1706Y1266*
X1709Y1273*
X1706Y1279*
X1700Y1282*
X1691*
X1684Y1279*
X1759Y1245D02*
X1734D01*
X1756Y1266*
X1759Y1273*
X1756Y1279*
X1750Y1282*
X1741*
X1734Y1279*
X1634Y1487D02*
Y1450D01*
X1666*
X1709D02*
X1684D01*
X1706Y1471*
X1709Y1478*
X1706Y1484*
X1700Y1487*
X1691*
X1684Y1484*
X1738Y1453D02*
X1744Y1450D01*
X1750*
X1756Y1453*
X1759Y1459*
X1756Y1465*
X1750Y1468*
X1744*
X1750D02*
X1756Y1471D01*
X1759Y1478*
X1756Y1484*
X1750Y1487*
X1744*
X1738Y1484*
X1634Y1687D02*
Y1650D01*
X1666*
X1709D02*
X1684D01*
X1706Y1671*
X1709Y1678*
X1706Y1684*
X1700Y1687*
X1691*
X1684Y1684*
X1750Y1650D02*
Y1687D01*
X1734Y1662*
X1759*
X1635Y775D02*
Y747D01*
X1638Y741*
X1644Y738*
X1656*
X1663Y741*
X1666Y747*
Y775*
X1688Y741D02*
X1694Y738D01*
X1700*
X1706Y741*
X1710Y747*
X1706Y754*
X1700Y757*
X1694*
X1700D02*
X1706Y760D01*
X1710Y766*
X1706Y772*
X1700Y775*
X1694*
X1688Y772*
X1638Y1899D02*
Y1862D01*
X1669*
X1713D02*
X1688D01*
X1709Y1884*
X1713Y1890*
X1709Y1896*
X1703Y1899*
X1694*
X1688Y1896*
X1738Y1865D02*
X1744Y1862D01*
X1753*
X1759Y1865*
X1763Y1871*
Y1874*
X1759Y1881*
X1753Y1884*
X1738*
Y1899*
X1763*
X1638Y3037D02*
Y3074D01*
X1659*
X1666Y3071*
X1669Y3065*
X1666Y3059*
X1659Y3056*
X1638*
X1659D02*
X1669Y3037D01*
X1713D02*
X1688D01*
X1709Y3059*
X1713Y3065*
X1709Y3071*
X1703Y3074*
X1694*
X1688Y3071*
X1638Y3174D02*
Y3137D01*
X1669*
X1688D02*
Y3174D01*
X1719*
X1713Y3156D02*
X1688D01*
Y3137D02*
X1719D01*
X1738D02*
Y3174D01*
X1756*
X1763Y3171*
X1766Y3168*
X1769Y3162*
Y3149*
X1766Y3143*
X1763Y3140*
X1756Y3137*
X1738*
X1813D02*
X1788D01*
X1809Y3159*
X1813Y3165*
X1809Y3171*
X1803Y3174*
X1794*
X1788Y3171*
X1838Y3137D02*
X1863Y3174D01*
X1838*
X1713Y612D02*
Y649D01*
X1734*
X1741Y646*
X1744Y640*
X1741Y634*
X1734Y631*
X1713*
X1734D02*
X1744Y612D01*
X1769D02*
X1781D01*
X1775D02*
Y649D01*
X1769Y643*
X1828Y612D02*
Y649D01*
X1813Y624*
X1838*
X0Y0D02*
M02*
