%FSLAX23Y23*%
%MOIN*%
G04 EasyPC Gerber Version 17.0 Build 3379 *
%ADD14C,0.00500*%
X0Y0D02*
D02*
D14*
X733Y626D02*
Y627D01*
X733*
G75*
G02X751Y1881I10257J479*
G01*
Y1884*
X745Y1890*
G75*
G02X746Y1980I127J45*
G01*
G75*
G02X881Y2054I113J-45*
G01*
Y2055*
G75*
G02X903Y2077I24J-2*
G01*
X1710*
G75*
G02X1788Y2025I11J-68*
G01*
G75*
G03X1804Y2027I7J12*
G01*
G75*
G02X2000Y1958I79J-89*
G01*
Y1956*
G75*
G03X2127Y1943I74J102*
G01*
G75*
G02X2360Y1948I116J10*
G01*
G75*
G03X2431Y1949I35J20*
G01*
G75*
G02X2646Y1902I99J-63*
G01*
Y1900*
G75*
G02X2682Y1864I3J-33*
G01*
X2683*
Y745*
G75*
G02X2658Y653I-150J-9*
G01*
G75*
G02X2593Y566I-120J22*
G01*
G75*
G02X2498Y564I-50J133*
G01*
G75*
G02X2435Y619I83J159*
G01*
Y620*
G75*
G03X2351Y586I-28J-52*
G01*
G75*
G02X2260Y519I-126J76*
G01*
X2245*
G75*
G02X2123Y634I-4J119*
G01*
G75*
G03X2003Y668I-77J-43*
G01*
G75*
G02X1885Y551I-117*
G01*
X1875*
G75*
G02X1790Y593I9J124*
G01*
X1785*
G75*
G03X1738Y558I-6J-41*
G01*
G75*
G02X1698Y505I-49J-5*
G01*
X983Y514*
X960*
X927Y547*
G75*
G02X779I-74J91*
G01*
G75*
G02X733Y626I66J91*
G01*
X932Y1808D02*
X777Y1653D01*
Y1553*
X773*
X848Y1430*
Y1373*
X778Y1238*
Y1123*
X905Y996*
X1279*
X1553Y1270*
Y1540*
X1285Y1808*
X932*
X1277Y2100D02*
X1283Y2097D01*
X1286Y2091*
Y2078*
X1283Y2072*
X1277Y2069*
X1271Y2072*
X1268Y2078*
Y2091*
X1264Y2097*
X1258Y2100*
X1252Y2097*
X1249Y2091*
Y2078*
X1252Y2072*
X1258Y2069*
X1261Y2050D02*
X1283D01*
X1286Y2047*
Y2041*
X1283Y2038*
X1274*
X1283D02*
X1286Y2035D01*
Y2028*
X1283Y2025*
X1261*
X1286Y1988D02*
X1261D01*
X1252D02*
X1261Y1944*
Y1932D01*
X1255Y1938D02*
X1283D01*
X1286Y1935*
Y1932*
X1283Y1928*
X1264Y1875D02*
X1261Y1882D01*
Y1891*
X1264Y1897*
X1271Y1900*
X1277*
X1283Y1897*
X1286Y1891*
Y1882*
X1283Y1875*
X1286Y1850D02*
X1249D01*
X1271D02*
X1264Y1847D01*
X1261Y1841*
Y1835*
X1264Y1828*
X1271Y1825*
X1286*
Y1794D02*
Y1782D01*
Y1788D02*
X1249D01*
X1255Y1794*
X1343Y1864D02*
X1666D01*
Y2148*
X1343*
Y1864*
X1425Y1065D02*
X1431Y1068D01*
X1434Y1074*
X1431Y1081*
X1425Y1084*
X1403*
Y1046*
X1425*
X1431Y1049*
X1434Y1056*
X1431Y1062*
X1425Y1065*
X1403*
X1453Y1084D02*
Y1046D01*
Y1065D02*
X1484D01*
Y1084D02*
Y1046D01*
X1509Y1084D02*
X1522D01*
X1515D02*
Y1046D01*
X1509Y1052*
X0Y0D02*
M02*
