%FSLAX23Y23*%
%MOIN*%
G04 EasyPC Gerber Version 17.0 Build 3379 *
%ADD14C,0.00500*%
%ADD13C,0.10000*%
X0Y0D02*
D02*
D13*
X813Y1288D03*
X853Y638D03*
X855Y1938D03*
X913Y1698D03*
X933Y1108D03*
X1013Y1648D03*
X1163Y1148D03*
X1223Y1168D03*
X1253Y1028D03*
X1263Y1108D03*
X1323Y1778D03*
X1343Y1998D03*
X1363Y1218D03*
X1373Y1368D03*
X1395Y1466D03*
X1403Y1868D03*
X1426Y1998D03*
X1463Y869D03*
X1503Y608D03*
X1504Y1998D03*
X1583D03*
X1663Y938D03*
X1666Y1998D03*
X1733Y1628D03*
X1803Y1158D03*
X1883Y668D03*
Y1938D03*
X2043Y1000D03*
Y1150D03*
Y1300D03*
Y1450D03*
Y1600D03*
X2113Y1738D03*
X2193Y998D03*
Y1150D03*
Y1300D03*
Y1450D03*
Y1600D03*
X2242Y634D03*
X2244Y1950D03*
X2263Y1738D03*
X2343Y1000D03*
Y1150D03*
Y1300D03*
Y1450D03*
Y1600D03*
X2493Y1000D03*
Y1150D03*
Y1300D03*
Y1450D03*
Y1600D03*
X2530Y1885D03*
X2533Y1718D03*
X2543Y672D03*
X2643Y1000D03*
Y1148D03*
Y1300D03*
Y1450D03*
Y1600D03*
D02*
D14*
X944Y1354D02*
X941Y1351D01*
X935Y1347*
X925*
X919Y1351*
X916Y1354*
X913Y1360*
Y1372*
X916Y1379*
X919Y1382*
X925Y1385*
X935*
X941Y1382*
X944Y1379*
X953Y697D02*
Y735D01*
Y716D02*
X962D01*
X984Y735*
X962Y716D02*
X984Y697D01*
X955Y1997D02*
Y2035D01*
Y2016D02*
X965D01*
X987Y2035*
X965Y2016D02*
X987Y1997D01*
X1044Y1764D02*
X1041Y1761D01*
X1035Y1757*
X1025*
X1019Y1761*
X1016Y1764*
X1013Y1770*
Y1782*
X1016Y1789*
X1019Y1792*
X1025Y1795*
X1035*
X1041Y1792*
X1044Y1789*
X1055Y1186D02*
X1061Y1183D01*
X1064Y1177*
X1061Y1171*
X1055Y1167*
X1033*
Y1205*
X1055*
X1061Y1202*
X1064Y1196*
X1061Y1189*
X1055Y1186*
X1033*
X1144Y1714D02*
X1141Y1711D01*
X1135Y1707*
X1125*
X1119Y1711*
X1116Y1714*
X1113Y1720*
Y1732*
X1116Y1739*
X1119Y1742*
X1125Y1745*
X1135*
X1141Y1742*
X1144Y1739*
X1285Y1226D02*
X1291Y1223D01*
X1294Y1217*
X1291Y1211*
X1285Y1207*
X1263*
Y1245*
X1285*
X1291Y1242*
X1294Y1236*
X1291Y1229*
X1285Y1226*
X1263*
X1345Y1246D02*
X1351Y1243D01*
X1354Y1237*
X1351Y1231*
X1345Y1227*
X1323*
Y1265*
X1345*
X1351Y1262*
X1354Y1256*
X1351Y1249*
X1345Y1246*
X1323*
X1384Y1094D02*
X1381Y1091D01*
X1375Y1087*
X1365*
X1359Y1091*
X1356Y1094*
X1353Y1100*
Y1112*
X1356Y1119*
X1359Y1122*
X1365Y1125*
X1375*
X1381Y1122*
X1384Y1119*
X1385Y1186D02*
X1391Y1183D01*
X1394Y1177*
X1391Y1171*
X1385Y1167*
X1363*
Y1205*
X1385*
X1391Y1202*
X1394Y1196*
X1391Y1189*
X1385Y1186*
X1363*
X1454Y1844D02*
X1451Y1841D01*
X1445Y1837*
X1435*
X1429Y1841*
X1426Y1844*
X1423Y1850*
Y1862*
X1426Y1869*
X1429Y1872*
X1435Y1875*
X1445*
X1451Y1872*
X1454Y1869*
X1443Y2057D02*
Y2095D01*
Y2076D02*
X1474D01*
Y2057D02*
Y2095D01*
X1494Y1284D02*
X1491Y1281D01*
X1485Y1277*
X1475*
X1469Y1281*
X1466Y1284*
X1463Y1290*
Y1302*
X1466Y1309*
X1469Y1312*
X1475Y1315*
X1485*
X1491Y1312*
X1494Y1309*
X1495Y1446D02*
X1501Y1443D01*
X1504Y1437*
X1501Y1431*
X1495Y1427*
X1473*
Y1465*
X1495*
X1501Y1462*
X1504Y1456*
X1501Y1449*
X1495Y1446*
X1473*
X1517Y1544D02*
X1524Y1541D01*
X1527Y1534*
X1524Y1528*
X1517Y1525*
X1495*
Y1562*
X1517*
X1524Y1559*
X1527Y1553*
X1524Y1547*
X1517Y1544*
X1495*
X1534Y1934D02*
X1531Y1931D01*
X1525Y1927*
X1515*
X1509Y1931*
X1506Y1934*
X1503Y1940*
Y1952*
X1506Y1959*
X1509Y1962*
X1515Y1965*
X1525*
X1531Y1962*
X1534Y1959*
X1548Y2073D02*
X1557D01*
Y2070*
X1554Y2064*
X1551Y2061*
X1544Y2057*
X1538*
X1532Y2061*
X1529Y2064*
X1526Y2070*
Y2082*
X1529Y2089*
X1532Y2092*
X1538Y2095*
X1544*
X1551Y2092*
X1554Y2089*
X1557Y2082*
X1594Y935D02*
X1591Y932D01*
X1585Y928*
X1575*
X1569Y932*
X1566Y935*
X1563Y941*
Y953*
X1566Y960*
X1569Y963*
X1575Y966*
X1585*
X1591Y963*
X1594Y960*
X1634Y674D02*
X1631Y671D01*
X1625Y667*
X1615*
X1609Y671*
X1606Y674*
X1603Y680*
Y692*
X1606Y699*
X1609Y702*
X1615Y705*
X1625*
X1631Y702*
X1634Y699*
X1626Y2073D02*
X1636D01*
Y2070*
X1633Y2064*
X1629Y2061*
X1623Y2057*
X1617*
X1611Y2061*
X1608Y2064*
X1604Y2070*
Y2082*
X1608Y2089*
X1611Y2092*
X1617Y2095*
X1623*
X1629Y2092*
X1633Y2089*
X1636Y2082*
X1705Y2073D02*
X1714D01*
Y2070*
X1711Y2064*
X1708Y2061*
X1702Y2057*
X1696*
X1689Y2061*
X1686Y2064*
X1683Y2070*
Y2082*
X1686Y2089*
X1689Y2092*
X1696Y2095*
X1702*
X1708Y2092*
X1711Y2089*
X1714Y2082*
X1794Y1004D02*
X1791Y1001D01*
X1785Y997*
X1775*
X1769Y1001*
X1766Y1004*
X1763Y1010*
Y1022*
X1766Y1029*
X1769Y1032*
X1775Y1035*
X1785*
X1791Y1032*
X1794Y1029*
X1775Y2057D02*
X1788D01*
X1781D02*
Y2095D01*
X1775D02*
X1788D01*
X1864Y1694D02*
X1861Y1691D01*
X1855Y1687*
X1845*
X1839Y1691*
X1836Y1694*
X1833Y1700*
Y1712*
X1836Y1719*
X1839Y1722*
X1845Y1725*
X1855*
X1861Y1722*
X1864Y1719*
X1934Y1224D02*
X1931Y1221D01*
X1925Y1217*
X1915*
X1909Y1221*
X1906Y1224*
X1903Y1230*
Y1242*
X1906Y1249*
X1909Y1252*
X1915Y1255*
X1925*
X1931Y1252*
X1934Y1249*
X1983Y727D02*
Y765D01*
Y746D02*
X1992D01*
X2014Y765*
X1992Y746D02*
X2014Y727D01*
X1983Y1997D02*
Y2035D01*
Y2016D02*
X1992D01*
X2014Y2035*
X1992Y2016D02*
X2014Y1997D01*
X2165Y1078D02*
X2171Y1075D01*
X2174Y1069*
X2171Y1062*
X2165Y1059*
X2143*
Y1097*
X2165*
X2171Y1094*
X2174Y1087*
X2171Y1081*
X2165Y1078*
X2143*
X2165Y1228D02*
X2171Y1225D01*
X2174Y1219*
X2171Y1212*
X2165Y1209*
X2143*
Y1247*
X2165*
X2171Y1244*
X2174Y1237*
X2171Y1231*
X2165Y1228*
X2143*
X2165Y1378D02*
X2171Y1375D01*
X2174Y1369*
X2171Y1362*
X2165Y1359*
X2143*
Y1397*
X2165*
X2171Y1394*
X2174Y1387*
X2171Y1381*
X2165Y1378*
X2143*
X2165Y1528D02*
X2171Y1525D01*
X2174Y1519*
X2171Y1512*
X2165Y1509*
X2143*
Y1547*
X2165*
X2171Y1544*
X2174Y1537*
X2171Y1531*
X2165Y1528*
X2143*
X2165Y1678D02*
X2171Y1675D01*
X2174Y1669*
X2171Y1662*
X2165Y1659*
X2143*
Y1697*
X2165*
X2171Y1694*
X2174Y1687*
X2171Y1681*
X2165Y1678*
X2143*
X2235Y1816D02*
X2241Y1813D01*
X2244Y1807*
X2241Y1801*
X2235Y1797*
X2213*
Y1835*
X2235*
X2241Y1832*
X2244Y1826*
X2241Y1819*
X2235Y1816*
X2213*
X2315Y1076D02*
X2321Y1073D01*
X2324Y1067*
X2321Y1061*
X2315Y1057*
X2293*
Y1095*
X2315*
X2321Y1092*
X2324Y1086*
X2321Y1079*
X2315Y1076*
X2293*
X2315Y1228D02*
X2321Y1225D01*
X2324Y1219*
X2321Y1212*
X2315Y1209*
X2293*
Y1247*
X2315*
X2321Y1244*
X2324Y1237*
X2321Y1231*
X2315Y1228*
X2293*
X2315Y1378D02*
X2321Y1375D01*
X2324Y1369*
X2321Y1362*
X2315Y1359*
X2293*
Y1397*
X2315*
X2321Y1394*
X2324Y1387*
X2321Y1381*
X2315Y1378*
X2293*
X2315Y1528D02*
X2321Y1525D01*
X2324Y1519*
X2321Y1512*
X2315Y1509*
X2293*
Y1547*
X2315*
X2321Y1544*
X2324Y1537*
X2321Y1531*
X2315Y1528*
X2293*
X2315Y1678D02*
X2321Y1675D01*
X2324Y1669*
X2321Y1662*
X2315Y1659*
X2293*
Y1697*
X2315*
X2321Y1694*
X2324Y1687*
X2321Y1681*
X2315Y1678*
X2293*
X2342Y693D02*
Y731D01*
Y712D02*
X2351D01*
X2373Y731*
X2351Y712D02*
X2373Y693D01*
X2344Y2009D02*
Y2047D01*
Y2028D02*
X2353D01*
X2375Y2047*
X2353Y2028D02*
X2375Y2009D01*
X2385Y1816D02*
X2391Y1813D01*
X2394Y1807*
X2391Y1801*
X2385Y1797*
X2363*
Y1835*
X2385*
X2391Y1832*
X2394Y1826*
X2391Y1819*
X2385Y1816*
X2363*
X2465Y1078D02*
X2471Y1075D01*
X2474Y1069*
X2471Y1062*
X2465Y1059*
X2443*
Y1097*
X2465*
X2471Y1094*
X2474Y1087*
X2471Y1081*
X2465Y1078*
X2443*
X2465Y1228D02*
X2471Y1225D01*
X2474Y1219*
X2471Y1212*
X2465Y1209*
X2443*
Y1247*
X2465*
X2471Y1244*
X2474Y1237*
X2471Y1231*
X2465Y1228*
X2443*
X2465Y1378D02*
X2471Y1375D01*
X2474Y1369*
X2471Y1362*
X2465Y1359*
X2443*
Y1397*
X2465*
X2471Y1394*
X2474Y1387*
X2471Y1381*
X2465Y1378*
X2443*
X2465Y1528D02*
X2471Y1525D01*
X2474Y1519*
X2471Y1512*
X2465Y1509*
X2443*
Y1547*
X2465*
X2471Y1544*
X2474Y1537*
X2471Y1531*
X2465Y1528*
X2443*
X2465Y1678D02*
X2471Y1675D01*
X2474Y1669*
X2471Y1662*
X2465Y1659*
X2443*
Y1697*
X2465*
X2471Y1694*
X2474Y1687*
X2471Y1681*
X2465Y1678*
X2443*
X2615Y1078D02*
X2621Y1075D01*
X2624Y1069*
X2621Y1062*
X2615Y1059*
X2593*
Y1097*
X2615*
X2621Y1094*
X2624Y1087*
X2621Y1081*
X2615Y1078*
X2593*
X2615Y1228D02*
X2621Y1225D01*
X2624Y1219*
X2621Y1212*
X2615Y1209*
X2593*
Y1247*
X2615*
X2621Y1244*
X2624Y1237*
X2621Y1231*
X2615Y1228*
X2593*
X2615Y1378D02*
X2621Y1375D01*
X2624Y1369*
X2621Y1362*
X2615Y1359*
X2593*
Y1397*
X2615*
X2621Y1394*
X2624Y1387*
X2621Y1381*
X2615Y1378*
X2593*
X2615Y1528D02*
X2621Y1525D01*
X2624Y1519*
X2621Y1512*
X2615Y1509*
X2593*
Y1547*
X2615*
X2621Y1544*
X2624Y1537*
X2621Y1531*
X2615Y1528*
X2593*
X2615Y1678D02*
X2621Y1675D01*
X2624Y1669*
X2621Y1662*
X2615Y1659*
X2593*
Y1697*
X2615*
X2621Y1694*
X2624Y1687*
X2621Y1681*
X2615Y1678*
X2593*
X2630Y1944D02*
Y1982D01*
Y1963D02*
X2639D01*
X2661Y1982*
X2639Y1963D02*
X2661Y1944D01*
X2655Y1796D02*
X2661Y1793D01*
X2664Y1787*
X2661Y1781*
X2655Y1777*
X2633*
Y1815*
X2655*
X2661Y1812*
X2664Y1806*
X2661Y1799*
X2655Y1796*
X2633*
X2643Y731D02*
Y769D01*
Y750D02*
X2652D01*
X2674Y769*
X2652Y750D02*
X2674Y731D01*
X2765Y1078D02*
X2771Y1075D01*
X2774Y1069*
X2771Y1062*
X2765Y1059*
X2743*
Y1097*
X2765*
X2771Y1094*
X2774Y1087*
X2771Y1081*
X2765Y1078*
X2743*
X2765Y1226D02*
X2771Y1223D01*
X2774Y1217*
X2771Y1211*
X2765Y1207*
X2743*
Y1245*
X2765*
X2771Y1242*
X2774Y1236*
X2771Y1229*
X2765Y1226*
X2743*
X2765Y1378D02*
X2771Y1375D01*
X2774Y1369*
X2771Y1362*
X2765Y1359*
X2743*
Y1397*
X2765*
X2771Y1394*
X2774Y1387*
X2771Y1381*
X2765Y1378*
X2743*
X2765Y1528D02*
X2771Y1525D01*
X2774Y1519*
X2771Y1512*
X2765Y1509*
X2743*
Y1547*
X2765*
X2771Y1544*
X2774Y1537*
X2771Y1531*
X2765Y1528*
X2743*
X2765Y1678D02*
X2771Y1675D01*
X2774Y1669*
X2771Y1662*
X2765Y1659*
X2743*
Y1697*
X2765*
X2771Y1694*
X2774Y1687*
X2771Y1681*
X2765Y1678*
X2743*
X0Y0D02*
M02*
