%FSLAX23Y23*%
%MOIN*%
G04 EasyPC Gerber Version 17.0 Build 3379 *
%ADD85R,0.02400X0.05600*%
%ADD90R,0.02752X0.04740*%
%ADD83R,0.04000X0.06500*%
%ADD93R,0.04600X0.06700*%
%ADD89R,0.06300X0.06700*%
%ADD92R,0.08874X0.08874*%
%ADD96C,0.07299*%
%ADD97C,0.08874*%
%ADD84R,0.05600X0.02400*%
%ADD87R,0.06500X0.02800*%
%ADD91R,0.06500X0.04000*%
%ADD94R,0.06700X0.04600*%
%AMT82*0 Rectangle Pad at angle 135*21,1,0.02752,0.04740,0,0,135*%
%ADD82T82*%
%ADD88R,0.07300X0.06500*%
%ADD86R,0.09300X0.06500*%
%ADD95C,0.24622*%
X0Y0D02*
D02*
D82*
X1965Y1036D03*
Y1186D03*
Y1336D03*
Y1486D03*
Y1636D03*
X2001Y1000D03*
Y1150D03*
Y1300D03*
Y1450D03*
Y1600D03*
X2115Y1036D03*
Y1186D03*
Y1336D03*
Y1486D03*
Y1636D03*
X2151Y1000D03*
Y1150D03*
Y1300D03*
Y1450D03*
Y1600D03*
X2265Y1036D03*
Y1186D03*
Y1336D03*
Y1486D03*
Y1636D03*
X2301Y1000D03*
Y1150D03*
Y1300D03*
Y1450D03*
Y1600D03*
X2415Y1036D03*
Y1186D03*
Y1336D03*
Y1486D03*
Y1636D03*
X2451Y1000D03*
Y1150D03*
Y1300D03*
Y1450D03*
Y1600D03*
X2565Y1036D03*
Y1186D03*
Y1336D03*
Y1486D03*
Y1636D03*
X2601Y1000D03*
Y1150D03*
Y1300D03*
Y1450D03*
Y1600D03*
D02*
D83*
X999Y1088D03*
X1022Y1511D03*
X1039Y1358D03*
X1066Y1088D03*
X1077Y1286D03*
X1089Y1511D03*
X1106Y1358D03*
X1144Y1286D03*
X1319Y808D03*
X1386D03*
X1939Y938D03*
X2006D03*
X2089D03*
X2156D03*
X2239D03*
X2306D03*
X2389D03*
X2456D03*
X2539D03*
X2606D03*
D02*
D84*
X1282Y1161D03*
Y1192D03*
Y1224D03*
Y1255D03*
Y1287D03*
Y1318D03*
Y1350D03*
Y1381D03*
Y1412D03*
Y1444D03*
Y1475D03*
X1724Y1161D03*
Y1192D03*
Y1224D03*
Y1255D03*
Y1287D03*
Y1318D03*
Y1350D03*
Y1381D03*
Y1412D03*
Y1444D03*
Y1475D03*
D02*
D85*
X1345Y1097D03*
Y1539D03*
X1377Y1097D03*
Y1539D03*
X1408Y1097D03*
Y1539D03*
X1440Y1097D03*
Y1539D03*
X1471Y1097D03*
Y1539D03*
X1503Y1097D03*
Y1539D03*
X1534Y1097D03*
Y1539D03*
X1566Y1097D03*
Y1539D03*
X1597Y1097D03*
Y1539D03*
X1629Y1097D03*
Y1539D03*
X1660Y1097D03*
Y1539D03*
D02*
D86*
X795Y848D03*
Y1025D03*
X805Y1578D03*
Y1755D03*
X1153Y848D03*
Y1025D03*
X1163Y1578D03*
Y1755D03*
X1274Y553D03*
Y730D03*
X1632Y553D03*
Y730D03*
D02*
D87*
X933Y1286D03*
Y1311D03*
Y1337D03*
Y1362D03*
Y1388D03*
D02*
D88*
X918Y1211D03*
Y1463D03*
D02*
D89*
X806Y1202D03*
Y1472D03*
D02*
D90*
X1027Y1158D03*
X1047Y1448D03*
X1079Y1158D03*
X1099Y1448D03*
D02*
D91*
X1263Y845D03*
Y912D03*
Y1585D03*
Y1652D03*
D02*
D92*
X1601Y838D03*
X1743D03*
D02*
D93*
X1541Y928D03*
X1604D03*
X1726Y933D03*
X1789D03*
D02*
D94*
X1203Y1284D03*
Y1347D03*
D02*
D95*
X853Y638D03*
X855Y1938D03*
X1883Y668D03*
Y1938D03*
X2242Y634D03*
X2244Y1950D03*
X2530Y1885D03*
X2543Y672D03*
D02*
D96*
X1426Y1998D03*
X1504D03*
X1583D03*
D02*
D97*
X1343D03*
X1666D03*
X0Y0D02*
M02*
