%FSLAX23Y23*%
%MOIN*%
G04 EasyPC Gerber Version 17.0 Build 3379 *
%AMT104*0 Rectangle Pad at angle 45*21,1,0.01000,0.04200,0,0,45*%
%ADD104T104*%
%ADD114R,0.01352X0.03340*%
%ADD107R,0.01400X0.05100*%
%ADD102R,0.03340X0.01352*%
%ADD103R,0.05100X0.02600*%
%ADD112R,0.03200X0.05300*%
%ADD111R,0.05300X0.03200*%
%ADD108R,0.05100X0.05900*%
%ADD106R,0.05100X0.07900*%
%ADD109R,0.05300X0.04900*%
%ADD113R,0.07474X0.07474*%
%AMT105*0 Rectangle Pad at angle 135*21,1,0.01000,0.04200,0,0,135*%
%ADD105T105*%
%AMT110*0 Rectangle Pad at angle 135*21,1,0.02600,0.05100,0,0,135*%
%ADD110T110*%
X0Y0D02*
D02*
D102*
X926Y278D03*
Y330D03*
Y428D03*
Y480D03*
Y578D03*
Y630D03*
Y728D03*
Y780D03*
Y878D03*
Y930D03*
X1076Y278D03*
Y330D03*
Y428D03*
Y480D03*
Y578D03*
Y630D03*
Y728D03*
Y780D03*
Y878D03*
Y930D03*
X1226Y278D03*
Y330D03*
Y428D03*
Y480D03*
Y578D03*
Y630D03*
Y728D03*
Y780D03*
Y878D03*
Y930D03*
X1376Y273D03*
Y325D03*
Y428D03*
Y480D03*
Y578D03*
Y630D03*
Y728D03*
Y780D03*
Y878D03*
Y930D03*
X1526Y278D03*
Y330D03*
Y428D03*
Y480D03*
Y578D03*
Y630D03*
Y728D03*
Y780D03*
Y878D03*
Y930D03*
D02*
D103*
X736Y1636D03*
Y1703D03*
X742Y1237D03*
Y1304D03*
X851Y271D03*
Y338D03*
Y421D03*
Y488D03*
Y571D03*
Y638D03*
Y721D03*
Y788D03*
Y871D03*
Y938D03*
X1701Y1636D03*
Y1703D03*
X1703Y1276D03*
Y1343D03*
D02*
D104*
X958Y1399D03*
X980Y1421D03*
X1003Y1444D03*
X1025Y1466D03*
X1047Y1488D03*
X1069Y1510D03*
X1092Y1533D03*
X1114Y1555D03*
X1136Y1577D03*
X1159Y1599D03*
X1181Y1622D03*
X1271Y1086D03*
X1293Y1109D03*
X1315Y1131D03*
X1337Y1153D03*
X1360Y1176D03*
X1382Y1198D03*
X1404Y1220D03*
X1427Y1242D03*
X1449Y1265D03*
X1471Y1287D03*
X1493Y1309D03*
D02*
D105*
X958D03*
X980Y1287D03*
X1003Y1265D03*
X1025Y1242D03*
X1047Y1220D03*
X1069Y1198D03*
X1092Y1176D03*
X1114Y1153D03*
X1136Y1131D03*
X1159Y1109D03*
X1181Y1086D03*
X1271Y1622D03*
X1293Y1599D03*
X1315Y1577D03*
X1337Y1555D03*
X1360Y1533D03*
X1382Y1510D03*
X1404Y1488D03*
X1427Y1466D03*
X1449Y1444D03*
X1471Y1421D03*
X1493Y1399D03*
D02*
D106*
X491Y1284D03*
Y1642D03*
X668Y1284D03*
Y1642D03*
X1791Y1284D03*
Y1642D03*
X1968Y1284D03*
Y1642D03*
D02*
D107*
X1188Y1779D03*
X1214D03*
X1240D03*
X1265D03*
X1291D03*
D02*
D108*
X1114Y1794D03*
X1366D03*
D02*
D109*
X1105Y1906D03*
X1375D03*
D02*
D110*
X982Y1638D03*
X1027Y1703D03*
X1029Y1590D03*
X1074Y1655D03*
D02*
D111*
X866Y1103D03*
Y1166D03*
X936Y1103D03*
Y1166D03*
D02*
D112*
X1234Y983D03*
X1297D03*
D02*
D113*
X809Y1400D03*
Y1542D03*
D02*
D114*
X794Y1678D03*
X845D03*
X1600Y1682D03*
X1651D03*
X0Y0D02*
M02*
