%FSLAX23Y23*%
%MOIN*%
G04 EasyPC Gerber Version 17.0 Build 3379 *
%ADD77R,0.01352X0.03340*%
%AMT76*0 Rectangle Pad at angle 45*21,1,0.01000,0.04200,0,0,45*%
%ADD76T76*%
%ADD79R,0.01400X0.05100*%
%ADD97R,0.02600X0.05100*%
%ADD78R,0.03200X0.05300*%
%ADD95R,0.05100X0.05500*%
%ADD80R,0.05100X0.05900*%
%AMT105*0 Rectangle Pad at angle 45*21,1,0.03200,0.05300,0,0,45*%
%ADD105T105*%
%ADD81R,0.05300X0.04900*%
%AMT75*0 Rectangle Pad at angle 135*21,1,0.01000,0.04200,0,0,135*%
%ADD75T75*%
%AMT108*0 Rectangle Pad at angle 135*21,1,0.02200,0.05100,0,0,135*%
%ADD108T108*%
X0Y0D02*
D02*
D75*
X1024Y2369D03*
X1046Y2346D03*
X1069Y2324D03*
X1091Y2302D03*
X1113Y2280D03*
X1135Y2257D03*
X1158Y2235D03*
X1180Y2213D03*
X1202Y2191D03*
X1225Y2168D03*
X1247Y2146D03*
X1337Y2681D03*
X1359Y2659D03*
X1381Y2637D03*
X1403Y2614D03*
X1426Y2592D03*
X1448Y2570D03*
X1470Y2548D03*
X1493Y2525D03*
X1515Y2503D03*
X1537Y2481D03*
X1559Y2459D03*
D02*
D76*
X1024D03*
X1046Y2481D03*
X1069Y2503D03*
X1091Y2525D03*
X1113Y2548D03*
X1135Y2570D03*
X1158Y2592D03*
X1180Y2614D03*
X1202Y2637D03*
X1225Y2659D03*
X1247Y2681D03*
X1337Y2146D03*
X1359Y2168D03*
X1381Y2191D03*
X1403Y2213D03*
X1426Y2235D03*
X1448Y2257D03*
X1470Y2280D03*
X1493Y2302D03*
X1515Y2324D03*
X1537Y2346D03*
X1559Y2369D03*
D02*
D77*
X762Y3153D03*
X813D03*
X862Y1028D03*
Y1218D03*
Y1423D03*
Y1623D03*
Y1828D03*
X913Y1028D03*
Y1218D03*
Y1423D03*
Y1623D03*
Y1828D03*
X1062Y1028D03*
Y1218D03*
Y1423D03*
Y1623D03*
Y1828D03*
X1113Y1028D03*
Y1218D03*
Y1423D03*
Y1623D03*
Y1828D03*
X1262Y1028D03*
Y1218D03*
Y1423D03*
Y1623D03*
Y1828D03*
X1313Y1028D03*
Y1218D03*
Y1423D03*
Y1623D03*
Y1828D03*
X1462Y1218D03*
Y1423D03*
Y1623D03*
Y1828D03*
X1467Y1023D03*
X1513Y1218D03*
Y1423D03*
Y1623D03*
Y1828D03*
X1518Y1023D03*
X1662Y1028D03*
Y1218D03*
Y1423D03*
Y1623D03*
Y1828D03*
X1713Y1028D03*
Y1218D03*
Y1423D03*
Y1623D03*
Y1828D03*
X1762Y3153D03*
X1813D03*
D02*
D78*
X636Y2028D03*
Y2128D03*
X699Y2028D03*
Y2128D03*
D02*
D79*
X1238Y3076D03*
X1264D03*
X1289D03*
X1315D03*
X1340D03*
D02*
D80*
X1163Y3091D03*
X1415D03*
D02*
D81*
X1154Y3203D03*
X1424D03*
D02*
D95*
X603Y2253D03*
X722D03*
X728Y553D03*
X847D03*
X853Y1127D03*
Y1328D03*
Y1528D03*
Y1728D03*
X916Y928D03*
X972Y1127D03*
Y1328D03*
Y1528D03*
Y1728D03*
X1035Y928D03*
X1728Y553D03*
X1847D03*
D02*
D97*
X754Y3078D03*
X821D03*
X1754Y3053D03*
X1821D03*
D02*
D105*
X915Y2687D03*
X960Y2732D03*
D02*
D108*
X946Y2859D03*
X998Y2807D03*
X1062Y2870D03*
X1114Y2818D03*
X0Y0D02*
M02*
